<svg xmlns="http://www.w3.org/2000/svg" width="101.993" height="115.734" viewBox="0 0 101.993 115.734">
  <path id="前面オブジェクトで型抜き_1" data-name="前面オブジェクトで型抜き 1" d="M51,115.734h0L0,86.8V28.934L51,0l51,28.934V86.8L51,115.734ZM44.261,74.054v4.294h1.356v2.145h9.5V78.348h1.356V74.054H54.749c1.016-2.942,3.759-9.995,7.241-11.984l-11-17.467V58.246a3.879,3.879,0,0,1-.315,7.688c-.111.01-.224.014-.335.014a3.879,3.879,0,0,1-1.29-7.536V44.6l-11,16.82a28.671,28.671,0,0,1,7.37,12.631ZM53.106,38.78H77.3a2.892,2.892,0,1,0,0-1.294H53.106V35.321H48.174v2.165H24.7a2.89,2.89,0,1,0,0,1.294H48.174v1.473h4.932V38.78Z" fill="#f8e4e4"/>
</svg>
