<svg xmlns="http://www.w3.org/2000/svg" width="97.803" height="115.734" viewBox="0 0 97.803 115.734">
  <path id="前面オブジェクトで型抜き_23" data-name="前面オブジェクトで型抜き 23" d="M48.9,115.734h0L0,86.8V28.934L48.9,0,97.8,28.934V86.8L48.9,115.734Zm.114-37.6h0c.527.509,1.075,1.009,1.629,1.485a31.019,31.019,0,0,0,2.821,2.169A22.4,22.4,0,0,0,56.2,83.38a14.7,14.7,0,0,0,2.584.982,9.181,9.181,0,0,0,2.36.336,5.552,5.552,0,0,0,2.818-.7,5.652,5.652,0,0,0,2.013-2.076,10.337,10.337,0,0,0,1.173-3.258,24.062,24.062,0,0,0-.264-9.1c-.1-.518-.223-1.06-.362-1.611.374-.11.751-.228,1.122-.351a25.314,25.314,0,0,0,8.3-4.329,10.321,10.321,0,0,0,2.3-2.649,5.583,5.583,0,0,0,.812-2.8,5.423,5.423,0,0,0-.76-2.685,9.851,9.851,0,0,0-2.161-2.53,18.628,18.628,0,0,0-3.38-2.272,30.53,30.53,0,0,0-4.424-1.9c-.657-.224-1.312-.429-1.945-.61.1-.415.2-.86.3-1.326a25.3,25.3,0,0,0,.395-9.352,10.337,10.337,0,0,0-1.144-3.318,5.584,5.584,0,0,0-2.025-2.1,5.439,5.439,0,0,0-2.754-.683,9.152,9.152,0,0,0-2.4.352,15,15,0,0,0-2.641,1.025,22.889,22.889,0,0,0-2.8,1.658,31.95,31.95,0,0,0-2.891,2.247c-.509.445-1.014.909-1.5,1.379-.355-.338-.682-.64-1-.923a33.355,33.355,0,0,0-3.048-2.418,24,24,0,0,0-2.966-1.782,15.757,15.757,0,0,0-2.794-1.1,9.544,9.544,0,0,0-2.538-.376,5.591,5.591,0,0,0-2.837.7,5.423,5.423,0,0,0-1.942,2,9.8,9.8,0,0,0-1.109,3.138A18.583,18.583,0,0,0,30.422,41a30.216,30.216,0,0,0,.571,4.782c.132.679.282,1.351.446,2-.767.217-1.518.453-2.233.7a29.031,29.031,0,0,0-4.327,1.887,17.935,17.935,0,0,0-3.3,2.256,9.694,9.694,0,0,0-2.1,2.519,5.5,5.5,0,0,0-.738,2.673A5.663,5.663,0,0,0,19.53,60.6a10.412,10.412,0,0,0,2.233,2.646,24.065,24.065,0,0,0,8.009,4.33c.538.182,1.087.354,1.631.511-.173.693-.333,1.416-.474,2.152a29.2,29.2,0,0,0-.527,4.694,18.042,18.042,0,0,0,.308,3.985,9.636,9.636,0,0,0,1.132,3.077,5.5,5.5,0,0,0,1.946,1.973,5.688,5.688,0,0,0,2.879.708,9.711,9.711,0,0,0,2.5-.358,15.645,15.645,0,0,0,2.741-1.045A23.17,23.17,0,0,0,44.8,81.583a30.969,30.969,0,0,0,2.952-2.293c.378-.329.79-.708,1.261-1.159Zm12.117,4a6.683,6.683,0,0,1-1.8-.283A12.764,12.764,0,0,1,57.2,81a20.39,20.39,0,0,1-2.362-1.4,28.521,28.521,0,0,1-2.517-1.939c-.5-.428-1.007-.894-1.516-1.384.908-1.006,1.8-2.056,2.636-3.123s1.649-2.17,2.419-3.3c1.373-.117,2.754-.282,4.106-.491s2.719-.467,4.063-.771c.13.527.239,1.017.327,1.457a27.74,27.74,0,0,1,.52,4.322,17.011,17.011,0,0,1-.23,3.644,8.375,8.375,0,0,1-.787,2.4,4.188,4.188,0,0,1-.554.809,2.6,2.6,0,0,1-.635.531A3.042,3.042,0,0,1,61.132,82.125ZM36.669,82.1a3.18,3.18,0,0,1-1.594-.362,3.223,3.223,0,0,1-1.205-1.386,8.18,8.18,0,0,1-.72-2.405,17,17,0,0,1-.159-3.264,27.213,27.213,0,0,1,.47-3.961c.126-.652.274-1.326.44-2,1.32.284,2.68.529,4.045.727,1.33.193,2.7.345,4.083.451.8,1.126,1.632,2.23,2.485,3.282s1.763,2.106,2.695,3.113c-.381.368-.768.723-1.15,1.058a27.2,27.2,0,0,1-3.478,2.607A17.122,17.122,0,0,1,39.3,81.577,8.1,8.1,0,0,1,36.669,82.1Zm12.337-7.659H49a55.87,55.87,0,0,1-3.627-4.343c1.124.044,2.311.068,3.529.068s2.453-.027,3.64-.081A55.07,55.07,0,0,1,49,74.436Zm-.1-6.853c-1.857,0-3.695-.058-5.462-.172-1.04-1.52-2.031-3.092-2.949-4.675s-1.788-3.224-2.574-4.861c.795-1.652,1.658-3.288,2.565-4.863s1.9-3.151,2.925-4.658c1.812-.138,3.66-.207,5.493-.207s3.686.07,5.5.207c1.018,1.506,2,3.067,2.912,4.641s1.788,3.2,2.6,4.84c-.806,1.659-1.678,3.3-2.592,4.882s-1.888,3.157-2.9,4.672C52.618,67.521,50.76,67.586,48.9,67.586Zm0-15.156a5.386,5.386,0,1,0,5.388,5.386A5.393,5.393,0,0,0,48.9,52.43Zm-8.745,14.7h0a55.151,55.151,0,0,1-5.551-.893c.536-1.731,1.2-3.522,1.956-5.325.526,1.018,1.1,2.069,1.708,3.122s1.234,2.079,1.888,3.094ZM57.7,67.08l0,0c.637-1.012,1.26-2.044,1.851-3.067.608-1.058,1.2-2.133,1.746-3.2a55.086,55.086,0,0,1,2.03,5.306,54.761,54.761,0,0,1-5.626.959ZM32.094,65.6h0c-.5-.142-1-.3-1.488-.465a27.417,27.417,0,0,1-4-1.711A16.9,16.9,0,0,1,23.57,61.4a8.328,8.328,0,0,1-1.687-1.885,4.263,4.263,0,0,1-.423-.884,2.6,2.6,0,0,1-.142-.815,3.225,3.225,0,0,1,.6-1.738,8.163,8.163,0,0,1,1.722-1.823,16.976,16.976,0,0,1,2.747-1.769,27.146,27.146,0,0,1,3.669-1.572c.686-.239,1.384-.458,2.076-.653a62.026,62.026,0,0,0,2.94,7.617c-.577,1.245-1.12,2.527-1.616,3.813s-.949,2.59-1.36,3.91Zm33.727-.133h0c-.421-1.3-.891-2.6-1.4-3.872s-1.065-2.537-1.658-3.768A60.618,60.618,0,0,0,65.7,50.3c.652.19,1.255.381,1.793.566a28.285,28.285,0,0,1,3.759,1.589,17.609,17.609,0,0,1,2.827,1.786,8.4,8.4,0,0,1,1.78,1.837,3.16,3.16,0,0,1,.62,1.739,3.345,3.345,0,0,1-.669,1.851A8.977,8.977,0,0,1,73.9,61.616,18.64,18.64,0,0,1,70.86,63.5a29.514,29.514,0,0,1-4.026,1.653c-.3.1-.628.2-1.011.318ZM61.278,54.849l0,0c-.542-1.031-1.125-2.087-1.733-3.136-.581-1-1.2-2.019-1.833-3.015,1.928.244,3.778.568,5.5.961a55.063,55.063,0,0,1-1.93,5.19Zm-24.729,0v0c-.745-1.769-1.389-3.524-1.914-5.216,1.691-.381,3.53-.7,5.467-.94-.639,1-1.262,2.019-1.85,3.04-.6,1.037-1.168,2.085-1.7,3.116ZM63.9,47.172h0A61.916,61.916,0,0,0,55.835,45.9c-.776-1.113-1.6-2.212-2.442-3.267s-1.74-2.1-2.656-3.095c.472-.454.938-.882,1.387-1.273a29.81,29.81,0,0,1,2.585-2.017,21.233,21.233,0,0,1,2.428-1.457,12.878,12.878,0,0,1,2.178-.883,6.626,6.626,0,0,1,1.837-.3,2.939,2.939,0,0,1,1.482.345,3.329,3.329,0,0,1,1.271,1.5,8.937,8.937,0,0,1,.731,2.634,18.715,18.715,0,0,1,.114,3.572,29.753,29.753,0,0,1-.578,4.313c-.08.382-.172.785-.272,1.2Zm-29.963-.026h0c-.153-.611-.292-1.236-.413-1.857a28.014,28.014,0,0,1-.508-4.05,17.5,17.5,0,0,1,.129-3.342,8.364,8.364,0,0,1,.7-2.46,3.165,3.165,0,0,1,1.194-1.407,3.1,3.1,0,0,1,1.56-.362,9.95,9.95,0,0,1,4.289,1.278,22.083,22.083,0,0,1,2.587,1.577A30.593,30.593,0,0,1,46.218,38.7c.289.257.585.53.9.835A61.88,61.88,0,0,0,41.985,45.9a63.208,63.208,0,0,0-8.048,1.25Zm11.411-1.485,0,0c1.178-1.549,2.383-2.989,3.58-4.279a55.58,55.58,0,0,1,3.547,4.279c-1.187-.053-2.385-.081-3.561-.081s-2.376.028-3.565.084Z" fill="#f8e4e4"/>
</svg>
