<svg xmlns="http://www.w3.org/2000/svg" viewBox="0 0 823.76 1038.54"><defs><style>.cls-1,.cls-5{fill:#fff;}.cls-2{fill:#b7b7b7;}.cls-3{fill:#919191;}.cls-4{fill:#eaeaea;}.cls-5{opacity:0.5;}.cls-6{fill:#b54e4e;}.cls-7,.cls-8{fill:#2e2e2e;}.cls-10,.cls-8{opacity:0.15;}.cls-9{fill:#d9a2a2;}.cls-10,.cls-12{fill:#123c69;}.cls-11{fill:#a79fa2;}.cls-13{fill:#575757;}.cls-14{fill:#e4ddda;}</style></defs><g id="Layer_2" data-name="Layer 2"><g id="Layer_13" data-name="Layer 13"><rect class="cls-1" y="411.88" width="823.76" height="390.66"/><circle class="cls-1" cx="411.88" cy="411.88" r="411.88"/><rect class="cls-2" y="708.05" width="823.76" height="330.49"/><polygon class="cls-3" points="369.07 283.78 369.07 708.05 329.51 708.05 329.51 247.74 369.07 283.78"/><polygon class="cls-3" points="254.3 422.83 254.3 708.05 214.73 708.05 214.73 386.79 254.3 422.83"/><rect class="cls-4" x="242.67" y="247.74" width="86.84" height="460.31"/><rect class="cls-1" x="260.71" y="284.2" width="53.36" height="9.75"/><rect class="cls-1" x="260.71" y="305.16" width="53.36" height="9.75"/><rect class="cls-1" x="260.71" y="326.11" width="53.36" height="9.75"/><rect class="cls-1" x="260.71" y="347.06" width="53.36" height="9.75"/><rect class="cls-1" x="260.71" y="368.01" width="53.36" height="9.75"/><rect class="cls-1" x="260.71" y="388.97" width="53.36" height="9.75"/><rect class="cls-1" x="260.71" y="409.92" width="53.36" height="9.75"/><rect class="cls-1" x="260.71" y="430.87" width="53.36" height="9.75"/><rect class="cls-1" x="260.71" y="451.82" width="53.36" height="9.75"/><rect class="cls-1" x="260.71" y="472.78" width="53.36" height="9.75"/><rect class="cls-1" x="260.71" y="493.73" width="53.36" height="9.75"/><rect class="cls-1" x="260.71" y="514.68" width="53.36" height="9.75"/><rect class="cls-1" x="260.71" y="535.63" width="53.36" height="9.75"/><rect class="cls-1" x="260.71" y="556.59" width="53.36" height="9.75"/><rect class="cls-1" x="260.71" y="577.54" width="53.36" height="9.75"/><rect class="cls-1" x="260.71" y="598.49" width="53.36" height="9.75"/><rect class="cls-1" x="260.71" y="619.45" width="53.36" height="9.75"/><rect class="cls-1" x="260.71" y="640.4" width="53.36" height="9.75"/><rect class="cls-1" x="260.71" y="661.35" width="53.36" height="9.75"/><rect class="cls-4" x="95.09" y="386.79" width="119.64" height="321.25" transform="translate(309.83 1094.84) rotate(-180)"/><rect class="cls-1" x="112.85" y="416.81" width="10" height="29.36"/><rect class="cls-1" x="131.38" y="416.81" width="10" height="29.36"/><rect class="cls-1" x="149.91" y="416.81" width="10" height="29.36" transform="translate(309.83 862.97) rotate(-180)"/><rect class="cls-1" x="168.45" y="416.81" width="10" height="29.36" transform="translate(346.89 862.97) rotate(-180)"/><rect class="cls-1" x="186.98" y="416.81" width="10" height="29.36" transform="translate(383.95 862.97) rotate(-180)"/><rect class="cls-1" x="112.85" y="461.5" width="10" height="29.36"/><rect class="cls-1" x="131.38" y="461.5" width="10" height="29.36"/><rect class="cls-1" x="149.91" y="461.5" width="10" height="29.36" transform="translate(309.83 952.36) rotate(-180)"/><rect class="cls-1" x="168.45" y="461.5" width="10" height="29.36" transform="translate(346.89 952.36) rotate(-180)"/><rect class="cls-1" x="186.98" y="461.5" width="10" height="29.36" transform="translate(383.95 952.36) rotate(-180)"/><rect class="cls-1" x="112.85" y="506.19" width="10" height="29.36"/><rect class="cls-1" x="131.38" y="506.19" width="10" height="29.36"/><rect class="cls-1" x="149.91" y="506.19" width="10" height="29.36" transform="translate(309.83 1041.74) rotate(-180)"/><rect class="cls-1" x="168.45" y="506.19" width="10" height="29.36" transform="translate(346.89 1041.74) rotate(-180)"/><rect class="cls-1" x="186.98" y="506.19" width="10" height="29.36" transform="translate(383.95 1041.74) rotate(-180)"/><rect class="cls-1" x="112.85" y="550.88" width="10" height="29.36"/><rect class="cls-1" x="131.38" y="550.88" width="10" height="29.36"/><rect class="cls-1" x="149.91" y="550.88" width="10" height="29.36" transform="translate(309.83 1131.13) rotate(-180)"/><rect class="cls-1" x="168.45" y="550.88" width="10" height="29.36" transform="translate(346.89 1131.13) rotate(-180)"/><rect class="cls-1" x="186.98" y="550.88" width="10" height="29.36" transform="translate(383.95 1131.13) rotate(-180)"/><rect class="cls-1" x="112.85" y="595.58" width="10" height="29.36"/><rect class="cls-1" x="131.38" y="595.58" width="10" height="29.36"/><rect class="cls-1" x="149.91" y="595.58" width="10" height="29.36" transform="translate(309.83 1220.51) rotate(-180)"/><rect class="cls-1" x="168.45" y="595.58" width="10" height="29.36" transform="translate(346.89 1220.51) rotate(-180)"/><rect class="cls-1" x="186.98" y="595.58" width="10" height="29.36" transform="translate(383.95 1220.51) rotate(-180)"/><rect class="cls-1" x="112.85" y="640.27" width="10" height="29.36"/><rect class="cls-1" x="131.38" y="640.27" width="10" height="29.36"/><rect class="cls-1" x="149.91" y="640.27" width="10" height="29.36" transform="translate(309.83 1309.9) rotate(-180)"/><rect class="cls-1" x="168.45" y="640.27" width="10" height="29.36" transform="translate(346.89 1309.9) rotate(-180)"/><rect class="cls-1" x="186.98" y="640.27" width="10" height="29.36" transform="translate(383.95 1309.9) rotate(-180)"/><rect class="cls-4" x="349.52" y="329.68" width="117.73" height="378.36" transform="translate(816.76 1037.73) rotate(-180)"/><polygon class="cls-4" points="302.54 205.03 242.67 247.74 329.51 247.74 302.54 205.03"/><polygon class="cls-3" points="302.54 205.03 369.07 283.78 329.51 247.74 302.54 205.03"/><polygon class="cls-2" points="122.85 416.81 122.85 419.08 115.12 419.08 115.12 446.16 112.85 446.16 112.85 416.81 122.85 416.81"/><polygon class="cls-2" points="141.38 416.81 141.38 419.08 133.65 419.08 133.65 446.16 131.38 446.16 131.38 416.81 141.38 416.81"/><polygon class="cls-2" points="159.91 416.81 159.91 419.08 152.19 419.08 152.19 446.16 149.91 446.16 149.91 416.81 159.91 416.81"/><polygon class="cls-2" points="178.45 416.81 178.45 419.08 170.72 419.08 170.72 446.16 168.45 446.16 168.45 416.81 178.45 416.81"/><polygon class="cls-2" points="196.98 416.81 196.98 419.08 189.25 419.08 189.25 446.16 186.98 446.16 186.98 416.81 196.98 416.81"/><polygon class="cls-2" points="122.85 461.5 122.85 463.77 115.12 463.77 115.12 490.85 112.85 490.85 112.85 461.5 122.85 461.5"/><polygon class="cls-2" points="141.38 461.5 141.38 463.77 133.65 463.77 133.65 490.85 131.38 490.85 131.38 461.5 141.38 461.5"/><polygon class="cls-2" points="159.91 461.5 159.91 463.77 152.19 463.77 152.19 490.85 149.91 490.85 149.91 461.5 159.91 461.5"/><polygon class="cls-2" points="178.45 461.5 178.45 463.77 170.72 463.77 170.72 490.85 168.45 490.85 168.45 461.5 178.45 461.5"/><polygon class="cls-2" points="196.98 461.5 196.98 463.77 189.25 463.77 189.25 490.85 186.98 490.85 186.98 461.5 196.98 461.5"/><polygon class="cls-2" points="122.85 506.2 122.85 508.47 115.12 508.47 115.12 535.55 112.85 535.55 112.85 506.2 122.85 506.2"/><polygon class="cls-2" points="141.38 506.2 141.38 508.47 133.65 508.47 133.65 535.55 131.38 535.55 131.38 506.2 141.38 506.2"/><polygon class="cls-2" points="159.91 506.2 159.91 508.47 152.19 508.47 152.19 535.55 149.91 535.55 149.91 506.2 159.91 506.2"/><polygon class="cls-2" points="178.45 506.2 178.45 508.47 170.72 508.47 170.72 535.55 168.45 535.55 168.45 506.2 178.45 506.2"/><polygon class="cls-2" points="196.98 506.2 196.98 508.47 189.25 508.47 189.25 535.55 186.98 535.55 186.98 506.2 196.98 506.2"/><polygon class="cls-2" points="122.85 550.89 122.85 553.16 115.12 553.16 115.12 580.24 112.85 580.24 112.85 550.89 122.85 550.89"/><polygon class="cls-2" points="141.38 550.89 141.38 553.16 133.65 553.16 133.65 580.24 131.38 580.24 131.38 550.89 141.38 550.89"/><polygon class="cls-2" points="159.91 550.89 159.91 553.16 152.19 553.16 152.19 580.24 149.91 580.24 149.91 550.89 159.91 550.89"/><polygon class="cls-2" points="178.45 550.89 178.45 553.16 170.72 553.16 170.72 580.24 168.45 580.24 168.45 550.89 178.45 550.89"/><polygon class="cls-2" points="196.98 550.89 196.98 553.16 189.25 553.16 189.25 580.24 186.98 580.24 186.98 550.89 196.98 550.89"/><polygon class="cls-2" points="122.85 595.59 122.85 597.86 115.12 597.86 115.12 624.93 112.85 624.93 112.85 595.59 122.85 595.59"/><polygon class="cls-2" points="141.38 595.59 141.38 597.86 133.65 597.86 133.65 624.93 131.38 624.93 131.38 595.59 141.38 595.59"/><polygon class="cls-2" points="159.91 595.59 159.91 597.86 152.19 597.86 152.19 624.93 149.91 624.93 149.91 595.59 159.91 595.59"/><polygon class="cls-2" points="178.45 595.59 178.45 597.86 170.72 597.86 170.72 624.93 168.45 624.93 168.45 595.59 178.45 595.59"/><polygon class="cls-2" points="196.98 595.59 196.98 597.86 189.25 597.86 189.25 624.93 186.98 624.93 186.98 595.59 196.98 595.59"/><polygon class="cls-2" points="122.85 640.28 122.85 642.55 115.12 642.55 115.12 669.63 112.85 669.63 112.85 640.28 122.85 640.28"/><polygon class="cls-2" points="141.38 640.28 141.38 642.55 133.65 642.55 133.65 669.63 131.38 669.63 131.38 640.28 141.38 640.28"/><polygon class="cls-2" points="159.91 640.28 159.91 642.55 152.19 642.55 152.19 669.63 149.91 669.63 149.91 640.28 159.91 640.28"/><polygon class="cls-2" points="178.45 640.28 178.45 642.55 170.72 642.55 170.72 669.63 168.45 669.63 168.45 640.28 178.45 640.28"/><polygon class="cls-2" points="196.98 640.28 196.98 642.55 189.25 642.55 189.25 669.63 186.98 669.63 186.98 640.28 196.98 640.28"/><polygon class="cls-2" points="122.85 684.97 122.85 687.24 115.12 687.24 115.12 714.32 112.85 714.32 112.85 684.97 122.85 684.97"/><polygon class="cls-2" points="141.38 684.97 141.38 687.24 133.65 687.24 133.65 714.32 131.38 714.32 131.38 684.97 141.38 684.97"/><polygon class="cls-2" points="159.91 684.97 159.91 687.24 152.19 687.24 152.19 714.32 149.91 714.32 149.91 684.97 159.91 684.97"/><polygon class="cls-2" points="178.45 684.97 178.45 687.24 170.72 687.24 170.72 714.32 168.45 714.32 168.45 684.97 178.45 684.97"/><polygon class="cls-2" points="196.98 684.97 196.98 687.24 189.25 687.24 189.25 714.32 186.98 714.32 186.98 684.97 196.98 684.97"/><polygon class="cls-2" points="314.07 284.2 314.07 286.47 262.97 286.47 262.97 293.96 260.71 293.96 260.71 284.2 314.07 284.2"/><polygon class="cls-2" points="314.07 305.15 314.07 307.42 262.97 307.42 262.97 314.91 260.71 314.91 260.71 305.15 314.07 305.15"/><polygon class="cls-2" points="314.07 326.11 314.07 328.38 262.97 328.38 262.97 335.87 260.71 335.87 260.71 326.11 314.07 326.11"/><polygon class="cls-2" points="314.07 347.06 314.07 349.33 262.97 349.33 262.97 356.82 260.71 356.82 260.71 347.06 314.07 347.06"/><polygon class="cls-2" points="314.07 368.02 314.07 370.29 262.97 370.29 262.97 377.78 260.71 377.78 260.71 368.02 314.07 368.02"/><polygon class="cls-2" points="314.07 388.97 314.07 391.24 262.97 391.24 262.97 398.73 260.71 398.73 260.71 388.97 314.07 388.97"/><polygon class="cls-2" points="314.07 409.93 314.07 412.2 262.97 412.2 262.97 419.69 260.71 419.69 260.71 409.93 314.07 409.93"/><polygon class="cls-2" points="314.07 430.88 314.07 433.15 262.97 433.15 262.97 440.64 260.71 440.64 260.71 430.88 314.07 430.88"/><polygon class="cls-2" points="314.07 451.83 314.07 454.11 262.97 454.11 262.97 461.6 260.71 461.6 260.71 451.83 314.07 451.83"/><polygon class="cls-2" points="314.07 472.79 314.07 475.06 262.97 475.06 262.97 482.55 260.71 482.55 260.71 472.79 314.07 472.79"/><polygon class="cls-2" points="314.07 493.74 314.07 496.01 262.97 496.01 262.97 503.5 260.71 503.5 260.71 493.74 314.07 493.74"/><polygon class="cls-2" points="314.07 514.7 314.07 516.97 262.97 516.97 262.97 524.46 260.71 524.46 260.71 514.7 314.07 514.7"/><polygon class="cls-2" points="314.07 535.65 314.07 537.92 262.97 537.92 262.97 545.41 260.71 545.41 260.71 535.65 314.07 535.65"/><polygon class="cls-2" points="314.07 556.61 314.07 558.88 262.97 558.88 262.97 566.37 260.71 566.37 260.71 556.61 314.07 556.61"/><polygon class="cls-2" points="314.07 577.56 314.07 579.83 262.97 579.83 262.97 587.32 260.71 587.32 260.71 577.56 314.07 577.56"/><polygon class="cls-2" points="314.07 598.52 314.07 600.79 262.97 600.79 262.97 608.28 260.71 608.28 260.71 598.52 314.07 598.52"/><polygon class="cls-2" points="314.07 619.47 314.07 621.74 262.97 621.74 262.97 629.23 260.71 629.23 260.71 619.47 314.07 619.47"/><polygon class="cls-2" points="314.07 640.42 314.07 642.7 262.97 642.7 262.97 650.18 260.71 650.18 260.71 640.42 314.07 640.42"/><polygon class="cls-2" points="314.07 661.38 314.07 663.65 262.97 663.65 262.97 671.14 260.71 671.14 260.71 661.38 314.07 661.38"/><rect class="cls-1" x="369.07" y="349.98" width="5.38" height="322.13"/><rect class="cls-1" x="381.28" y="349.98" width="5.38" height="322.13"/><rect class="cls-1" x="393.48" y="349.98" width="5.38" height="322.13"/><rect class="cls-1" x="405.69" y="349.98" width="5.38" height="322.13"/><rect class="cls-1" x="417.9" y="349.98" width="5.38" height="322.13"/><rect class="cls-1" x="430.1" y="349.98" width="5.38" height="322.13"/><rect class="cls-1" x="442.31" y="349.98" width="5.38" height="322.13"/><polygon class="cls-2" points="374.46 349.98 374.46 351.68 370.77 351.68 370.77 672.11 369.07 672.11 369.07 349.98 374.46 349.98"/><polygon class="cls-2" points="386.67 349.98 386.67 351.68 382.98 351.68 382.98 672.11 381.27 672.11 381.27 349.98 386.67 349.98"/><polygon class="cls-2" points="398.87 349.98 398.87 351.68 395.18 351.68 395.18 672.11 393.48 672.11 393.48 349.98 398.87 349.98"/><polygon class="cls-2" points="411.08 349.98 411.08 351.68 407.39 351.68 407.39 672.11 405.69 672.11 405.69 349.98 411.08 349.98"/><polygon class="cls-2" points="423.28 349.98 423.28 351.68 419.59 351.68 419.59 672.11 417.89 672.11 417.89 349.98 423.28 349.98"/><polygon class="cls-2" points="435.49 349.98 435.49 351.68 431.8 351.68 431.8 672.11 430.1 672.11 430.1 349.98 435.49 349.98"/><polygon class="cls-2" points="447.69 349.98 447.69 351.68 444 351.68 444 672.11 442.3 672.11 442.3 349.98 447.69 349.98"/><polygon class="cls-3" points="574.83 259.65 574.83 285.77 570.38 281.72 570.38 281.96 550.49 281.96 550.49 237.48 574.83 259.65"/><polygon class="cls-3" points="594.72 303.89 594.72 708.05 570.38 708.05 570.38 281.72 574.83 285.77 594.72 303.89"/><polygon class="cls-4" points="570.38 281.96 570.38 708.05 450.31 708.05 450.31 281.96 470.21 281.96 470.21 237.48 550.49 237.48 550.49 281.96 570.38 281.96"/><path class="cls-5" d="M504.33,254.76v28.61h-14V254.76a7,7,0,0,1,6.83-7h.19a7,7,0,0,1,7,7Z"/><rect class="cls-4" x="490.29" y="264.55" width="14.04" height="2"/><path class="cls-5" d="M516.36,247.74h14a0,0,0,0,1,0,0v28.61a7,7,0,0,1-7,7h0a7,7,0,0,1-7-7V247.74a0,0,0,0,1,0,0Z" transform="translate(1046.77 531.11) rotate(-180)"/><rect class="cls-4" x="516.36" y="264.55" width="14.04" height="2"/><path class="cls-5" d="M489.09,301.9h0a12.67,12.67,0,0,1,12.67,12.67V672.29a0,0,0,0,1,0,0H476.41a0,0,0,0,1,0,0V314.58A12.67,12.67,0,0,1,489.09,301.9Z"/><rect class="cls-4" x="476.41" y="332.42" width="25.35" height="2"/><rect class="cls-4" x="476.41" y="356.16" width="25.35" height="2"/><rect class="cls-4" x="476.41" y="379.91" width="25.35" height="2"/><rect class="cls-4" x="476.41" y="403.65" width="25.35" height="2"/><rect class="cls-4" x="476.41" y="427.4" width="25.35" height="2"/><rect class="cls-4" x="476.41" y="451.14" width="25.35" height="2"/><rect class="cls-4" x="476.41" y="474.89" width="25.35" height="2"/><rect class="cls-4" x="476.41" y="498.64" width="25.35" height="2"/><rect class="cls-4" x="476.41" y="522.38" width="25.35" height="2"/><rect class="cls-4" x="476.41" y="546.13" width="25.35" height="2"/><rect class="cls-4" x="476.41" y="569.87" width="25.35" height="2"/><rect class="cls-4" x="476.41" y="593.62" width="25.35" height="2"/><rect class="cls-4" x="476.41" y="617.36" width="25.35" height="2"/><rect class="cls-4" x="476.41" y="641.11" width="25.35" height="2"/><path class="cls-5" d="M518.93,301.9h25.35a0,0,0,0,1,0,0V659.61a12.67,12.67,0,0,1-12.67,12.67h0a12.67,12.67,0,0,1-12.67-12.67V301.9A0,0,0,0,1,518.93,301.9Z" transform="translate(1063.21 974.19) rotate(-180)"/><rect class="cls-4" x="518.93" y="332.42" width="25.35" height="2"/><rect class="cls-4" x="518.93" y="356.16" width="25.35" height="2"/><rect class="cls-4" x="518.93" y="379.91" width="25.35" height="2"/><rect class="cls-4" x="518.93" y="403.65" width="25.35" height="2"/><rect class="cls-4" x="518.93" y="427.4" width="25.35" height="2"/><rect class="cls-4" x="518.93" y="451.14" width="25.35" height="2"/><rect class="cls-4" x="518.93" y="474.89" width="25.35" height="2"/><rect class="cls-4" x="518.93" y="498.64" width="25.35" height="2"/><rect class="cls-4" x="518.93" y="522.38" width="25.35" height="2"/><rect class="cls-4" x="518.93" y="546.13" width="25.35" height="2"/><rect class="cls-4" x="518.93" y="569.87" width="25.35" height="2"/><rect class="cls-4" x="518.93" y="593.62" width="25.35" height="2"/><rect class="cls-4" x="518.93" y="617.36" width="25.35" height="2"/><rect class="cls-4" x="518.93" y="641.11" width="25.35" height="2"/><polygon class="cls-3" points="728.67 368.77 728.67 708.05 687.2 708.05 687.2 330.99 728.67 368.77"/><rect class="cls-4" x="583.49" y="330.99" width="103.71" height="377.06" transform="translate(1270.69 1039.03) rotate(-180)"/><rect class="cls-1" x="599.69" y="354.18" width="32.14" height="13.1"/><rect class="cls-1" x="638.86" y="354.18" width="32.14" height="13.1" transform="translate(1309.86 721.46) rotate(-180)"/><rect class="cls-1" x="599.69" y="381.51" width="32.14" height="13.1"/><rect class="cls-1" x="638.86" y="381.51" width="32.14" height="13.1" transform="translate(1309.86 776.12) rotate(-180)"/><rect class="cls-1" x="599.69" y="408.84" width="32.14" height="13.1"/><rect class="cls-1" x="638.86" y="408.84" width="32.14" height="13.1" transform="translate(1309.86 830.78) rotate(-180)"/><rect class="cls-1" x="599.69" y="436.17" width="32.14" height="13.1"/><rect class="cls-1" x="638.86" y="436.17" width="32.14" height="13.1" transform="translate(1309.86 885.44) rotate(-180)"/><rect class="cls-1" x="599.69" y="463.5" width="32.14" height="13.1"/><rect class="cls-1" x="638.86" y="463.5" width="32.14" height="13.1" transform="translate(1309.86 940.1) rotate(-180)"/><rect class="cls-1" x="599.69" y="490.83" width="32.14" height="13.1"/><rect class="cls-1" x="638.86" y="490.83" width="32.14" height="13.1" transform="translate(1309.86 994.76) rotate(-180)"/><rect class="cls-1" x="599.69" y="518.16" width="32.14" height="13.1"/><rect class="cls-1" x="638.86" y="518.16" width="32.14" height="13.1" transform="translate(1309.86 1049.43) rotate(-180)"/><rect class="cls-1" x="599.69" y="545.49" width="32.14" height="13.1"/><rect class="cls-1" x="638.86" y="545.49" width="32.14" height="13.1" transform="translate(1309.86 1104.09) rotate(-180)"/><rect class="cls-1" x="599.69" y="572.82" width="32.14" height="13.1"/><rect class="cls-1" x="638.86" y="572.82" width="32.14" height="13.1" transform="translate(1309.86 1158.75) rotate(-180)"/><rect class="cls-1" x="599.69" y="600.15" width="32.14" height="13.1"/><rect class="cls-1" x="638.86" y="600.15" width="32.14" height="13.1" transform="translate(1309.86 1213.41) rotate(-180)"/><rect class="cls-1" x="599.69" y="627.48" width="32.14" height="13.1"/><rect class="cls-1" x="638.86" y="627.48" width="32.14" height="13.1" transform="translate(1309.86 1268.07) rotate(-180)"/><rect class="cls-1" x="599.69" y="654.81" width="32.14" height="13.1"/><rect class="cls-1" x="638.86" y="654.81" width="32.14" height="13.1" transform="translate(1309.86 1322.73) rotate(-180)"/><path class="cls-2" d="M493.58,302.72a12.66,12.66,0,0,0-14.9,12.48V672.29h-2.27V314.58a12.68,12.68,0,0,1,17.17-11.86Z"/><path class="cls-2" d="M499.23,248.17a6.26,6.26,0,0,0-1.16-.1,6.6,6.6,0,0,0-6.6,6.6v28.7h-1.18v-29a6.61,6.61,0,0,1,6.61-6.6h.22A6.44,6.44,0,0,1,499.23,248.17Z"/><path class="cls-2" d="M525.3,248.17a6.26,6.26,0,0,0-1.16-.1,6.6,6.6,0,0,0-6.6,6.6v28.7h-1.18v-29a6.61,6.61,0,0,1,6.61-6.6h.22A6.44,6.44,0,0,1,525.3,248.17Z"/><path class="cls-2" d="M536.1,302.72a12.66,12.66,0,0,0-14.9,12.48V672.29h-2.27V314.58a12.68,12.68,0,0,1,17.17-11.86Z"/><polygon class="cls-2" points="631.83 354.18 631.83 356.45 601.95 356.45 601.95 367.29 599.69 367.29 599.69 354.18 631.83 354.18"/><polygon class="cls-2" points="671 354.18 671 356.45 641.12 356.45 641.12 367.29 638.86 367.29 638.86 354.18 671 354.18"/><polygon class="cls-2" points="631.83 381.51 631.83 383.78 601.95 383.78 601.95 394.62 599.69 394.62 599.69 381.51 631.83 381.51"/><polygon class="cls-2" points="671 381.51 671 383.78 641.12 383.78 641.12 394.62 638.86 394.62 638.86 381.51 671 381.51"/><polygon class="cls-2" points="631.83 408.84 631.83 411.11 601.95 411.11 601.95 421.95 599.69 421.95 599.69 408.84 631.83 408.84"/><polygon class="cls-2" points="671 408.84 671 411.11 641.12 411.11 641.12 421.95 638.86 421.95 638.86 408.84 671 408.84"/><polygon class="cls-2" points="631.83 436.16 631.83 438.43 601.95 438.43 601.95 449.27 599.69 449.27 599.69 436.16 631.83 436.16"/><polygon class="cls-2" points="671 436.16 671 438.43 641.12 438.43 641.12 449.27 638.86 449.27 638.86 436.16 671 436.16"/><polygon class="cls-2" points="631.83 463.49 631.83 465.76 601.95 465.76 601.95 476.6 599.69 476.6 599.69 463.49 631.83 463.49"/><polygon class="cls-2" points="671 463.49 671 465.76 641.12 465.76 641.12 476.6 638.86 476.6 638.86 463.49 671 463.49"/><polygon class="cls-2" points="631.83 490.82 631.83 493.09 601.95 493.09 601.95 503.93 599.69 503.93 599.69 490.82 631.83 490.82"/><polygon class="cls-2" points="671 490.82 671 493.09 641.12 493.09 641.12 503.93 638.86 503.93 638.86 490.82 671 490.82"/><polygon class="cls-2" points="631.83 518.15 631.83 520.42 601.95 520.42 601.95 531.26 599.69 531.26 599.69 518.15 631.83 518.15"/><polygon class="cls-2" points="671 518.15 671 520.42 641.12 520.42 641.12 531.26 638.86 531.26 638.86 518.15 671 518.15"/><polygon class="cls-2" points="631.83 545.48 631.83 547.75 601.95 547.75 601.95 558.59 599.69 558.59 599.69 545.48 631.83 545.48"/><polygon class="cls-2" points="671 545.48 671 547.75 641.12 547.75 641.12 558.59 638.86 558.59 638.86 545.48 671 545.48"/><polygon class="cls-2" points="631.83 572.81 631.83 575.08 601.95 575.08 601.95 585.92 599.69 585.92 599.69 572.81 631.83 572.81"/><polygon class="cls-2" points="671 572.81 671 575.08 641.12 575.08 641.12 585.92 638.86 585.92 638.86 572.81 671 572.81"/><polygon class="cls-2" points="631.83 600.14 631.83 602.41 601.95 602.41 601.95 613.25 599.69 613.25 599.69 600.14 631.83 600.14"/><polygon class="cls-2" points="671 600.14 671 602.41 641.12 602.41 641.12 613.25 638.86 613.25 638.86 600.14 671 600.14"/><polygon class="cls-2" points="631.83 627.46 631.83 629.73 601.95 629.73 601.95 640.57 599.69 640.57 599.69 627.46 631.83 627.46"/><polygon class="cls-2" points="671 627.46 671 629.73 641.12 629.73 641.12 640.57 638.86 640.57 638.86 627.46 671 627.46"/><polygon class="cls-2" points="631.83 654.79 631.83 657.06 601.95 657.06 601.95 667.9 599.69 667.9 599.69 654.79 631.83 654.79"/><polygon class="cls-2" points="671 654.79 671 657.06 641.12 657.06 641.12 667.9 638.86 667.9 638.86 654.79 671 654.79"/><path class="cls-1" d="M313.55,390.87a16.42,16.42,0,0,1-.84,5.13h-31a16.14,16.14,0,0,1-.85-5.13,13.94,13.94,0,0,1,.07-1.45,17.08,17.08,0,0,1,.76-3.67h31a17.08,17.08,0,0,1,.76,3.67A13.94,13.94,0,0,1,313.55,390.87Z"/><path class="cls-6" d="M285.08,380a16.1,16.1,0,0,0-3.34,5.77h31a16.1,16.1,0,0,0-3.34-5.77Z"/><path class="cls-6" d="M285.08,401.75h24.29a16,16,0,0,0,3.34-5.75h-31A16,16,0,0,0,285.08,401.75Z"/><path class="cls-3" d="M313.48,389.42H281a17.08,17.08,0,0,1,.76-3.67h31A17.08,17.08,0,0,1,313.48,389.42Z"/><rect class="cls-6" x="296.08" y="379.98" width="2.28" height="21.77"/><path class="cls-1" d="M313.55,683.83a16.35,16.35,0,0,1-.84,5.12h-31a16.07,16.07,0,0,1-.85-5.12,13.94,13.94,0,0,1,.07-1.45,17.3,17.3,0,0,1,.76-3.68h31a17.3,17.3,0,0,1,.76,3.68A13.94,13.94,0,0,1,313.55,683.83Z"/><path class="cls-6" d="M285.08,672.94a16.05,16.05,0,0,0-3.34,5.76h31a16.05,16.05,0,0,0-3.34-5.76Z"/><path class="cls-6" d="M285.08,694.71h24.29a16.14,16.14,0,0,0,3.34-5.76h-31A16.14,16.14,0,0,0,285.08,694.71Z"/><path class="cls-3" d="M313.48,682.38H281a17.3,17.3,0,0,1,.76-3.68h31A17.3,17.3,0,0,1,313.48,682.38Z"/><rect class="cls-6" x="296.08" y="672.94" width="2.28" height="21.77"/><path class="cls-1" d="M260,401a16.14,16.14,0,0,1-.85,5.13h-31a16.42,16.42,0,0,1-.84-5.13,13.94,13.94,0,0,1,.07-1.45,17.21,17.21,0,0,1,.76-3.67h31a16.63,16.63,0,0,1,.77,3.67A13.94,13.94,0,0,1,260,401Z"/><path class="cls-6" d="M231.56,390.11a16.1,16.1,0,0,0-3.34,5.77h31a16.1,16.1,0,0,0-3.34-5.77Z"/><path class="cls-6" d="M231.56,411.88h24.29a16.16,16.16,0,0,0,3.34-5.75h-31A16,16,0,0,0,231.56,411.88Z"/><path class="cls-3" d="M260,399.55H227.45a17.21,17.21,0,0,1,.76-3.67h31A16.63,16.63,0,0,1,260,399.55Z"/><rect class="cls-6" x="242.56" y="390.11" width="2.28" height="21.77"/><path class="cls-1" d="M217.18,428a16.42,16.42,0,0,1-.84,5.13h-31a16.14,16.14,0,0,1-.85-5.13,13.94,13.94,0,0,1,.07-1.45,16.51,16.51,0,0,1,.77-3.67h31a17.08,17.08,0,0,1,.76,3.67A13.94,13.94,0,0,1,217.18,428Z"/><path class="cls-6" d="M188.71,417.12a16.1,16.1,0,0,0-3.34,5.77h31a16.1,16.1,0,0,0-3.34-5.77Z"/><path class="cls-6" d="M188.71,438.89H213a16,16,0,0,0,3.34-5.75h-31A16.16,16.16,0,0,0,188.71,438.89Z"/><path class="cls-3" d="M217.11,426.56H184.6a16.51,16.51,0,0,1,.77-3.67h31A17.08,17.08,0,0,1,217.11,426.56Z"/><rect class="cls-6" x="199.72" y="417.12" width="2.28" height="21.77"/><path class="cls-1" d="M190.44,471.23a16.42,16.42,0,0,1-.84,5.13h-31a16.14,16.14,0,0,1-.85-5.13,13.94,13.94,0,0,1,.07-1.45,16.72,16.72,0,0,1,.77-3.68h31a17.3,17.3,0,0,1,.76,3.68A13.94,13.94,0,0,1,190.44,471.23Z"/><path class="cls-6" d="M162,460.34a16.05,16.05,0,0,0-3.34,5.76h31a16.05,16.05,0,0,0-3.34-5.76Z"/><path class="cls-6" d="M162,482.11h24.29a16.1,16.1,0,0,0,3.34-5.75h-31A16.25,16.25,0,0,0,162,482.11Z"/><path class="cls-3" d="M190.37,469.78H157.86a16.72,16.72,0,0,1,.77-3.68h31A17.3,17.3,0,0,1,190.37,469.78Z"/><rect class="cls-6" x="172.98" y="460.34" width="2.28" height="21.77"/><path class="cls-1" d="M171.74,516.28a16.35,16.35,0,0,1-.84,5.12h-31a16.07,16.07,0,0,1-.85-5.12,13.94,13.94,0,0,1,.07-1.45,17.3,17.3,0,0,1,.76-3.68h31a17.3,17.3,0,0,1,.76,3.68A13.94,13.94,0,0,1,171.74,516.28Z"/><path class="cls-6" d="M143.27,505.39a16,16,0,0,0-3.34,5.76h31a16,16,0,0,0-3.34-5.76Z"/><path class="cls-6" d="M143.27,527.16h24.29a16.14,16.14,0,0,0,3.34-5.76h-31A16.14,16.14,0,0,0,143.27,527.16Z"/><path class="cls-3" d="M171.67,514.83H139.16a17.3,17.3,0,0,1,.76-3.68h31A17.3,17.3,0,0,1,171.67,514.83Z"/><rect class="cls-6" x="154.27" y="505.39" width="2.28" height="21.77"/><path class="cls-1" d="M189.64,613.45a16.07,16.07,0,0,1-.84,5.12h-31a16.07,16.07,0,0,1-.85-5.12c0-.49,0-1,.07-1.45a17.31,17.31,0,0,1,.77-3.68h31a17.31,17.31,0,0,1,.77,3.68C189.62,612.48,189.64,613,189.64,613.45Z"/><path class="cls-6" d="M161.17,602.56a16.12,16.12,0,0,0-3.34,5.76h31a16.12,16.12,0,0,0-3.34-5.76Z"/><path class="cls-6" d="M161.17,624.33h24.3a16.44,16.44,0,0,0,3.34-5.76h-31A16.44,16.44,0,0,0,161.17,624.33Z"/><path class="cls-3" d="M189.58,612H157.06a17.31,17.31,0,0,1,.77-3.68h31A17.31,17.31,0,0,1,189.58,612Z"/><rect class="cls-6" x="172.18" y="602.56" width="2.28" height="21.77"/><path class="cls-1" d="M220.5,649.32a16.08,16.08,0,0,1-.84,5.13h-31a16.09,16.09,0,0,1-.85-5.13c0-.49,0-1,.07-1.45a17.22,17.22,0,0,1,.77-3.67h31a17.22,17.22,0,0,1,.77,3.67C220.48,648.35,220.5,648.83,220.5,649.32Z"/><path class="cls-6" d="M192,638.43a16.24,16.24,0,0,0-3.34,5.77h31a16.39,16.39,0,0,0-3.34-5.77Z"/><path class="cls-6" d="M192,660.2h24.3a16.14,16.14,0,0,0,3.33-5.75h-31A16.16,16.16,0,0,0,192,660.2Z"/><path class="cls-3" d="M220.44,647.87H187.92a17.22,17.22,0,0,1,.77-3.67h31A17.22,17.22,0,0,1,220.44,647.87Z"/><rect class="cls-6" x="203.04" y="638.43" width="2.28" height="21.77"/><path class="cls-1" d="M265.29,672.94a16.14,16.14,0,0,1-.85,5.13h-31a16.42,16.42,0,0,1-.84-5.13,13.94,13.94,0,0,1,.07-1.45,16.62,16.62,0,0,1,.76-3.67h31a17.22,17.22,0,0,1,.77,3.67C265.26,672,265.29,672.45,265.29,672.94Z"/><path class="cls-6" d="M236.82,662.05a16.1,16.1,0,0,0-3.34,5.77h31a16.1,16.1,0,0,0-3.34-5.77Z"/><path class="cls-6" d="M236.82,683.82h24.29a16.16,16.16,0,0,0,3.34-5.75h-31A16,16,0,0,0,236.82,683.82Z"/><path class="cls-3" d="M265.22,671.49H232.71a16.62,16.62,0,0,1,.76-3.67h31A17.22,17.22,0,0,1,265.22,671.49Z"/><rect class="cls-6" x="247.82" y="662.05" width="2.28" height="21.77"/><path class="cls-1" d="M334.42,401a16.14,16.14,0,0,0,.85,5.13h31a16.42,16.42,0,0,0,.84-5.13,13.94,13.94,0,0,0-.07-1.45,16.62,16.62,0,0,0-.76-3.67h-31a17.22,17.22,0,0,0-.77,3.67C334.45,400,334.42,400.51,334.42,401Z"/><path class="cls-6" d="M362.89,390.11a16.27,16.27,0,0,1,3.35,5.77h-31a16.24,16.24,0,0,1,3.34-5.77Z"/><path class="cls-6" d="M362.89,411.88H338.6a16.16,16.16,0,0,1-3.34-5.75h31A16,16,0,0,1,362.89,411.88Z"/><path class="cls-3" d="M334.49,399.55H367a16.62,16.62,0,0,0-.76-3.67h-31A17.22,17.22,0,0,0,334.49,399.55Z"/><rect class="cls-6" x="349.61" y="390.11" width="2.28" height="21.77"/><path class="cls-1" d="M377.27,428a16.14,16.14,0,0,0,.85,5.13h31a16.42,16.42,0,0,0,.84-5.13,13.94,13.94,0,0,0-.07-1.45,17.08,17.08,0,0,0-.76-3.67h-31a17.08,17.08,0,0,0-.76,3.67A13.94,13.94,0,0,0,377.27,428Z"/><path class="cls-6" d="M405.74,417.12a16.1,16.1,0,0,1,3.34,5.77h-31a16.1,16.1,0,0,1,3.34-5.77Z"/><path class="cls-6" d="M405.74,438.89H381.45a16,16,0,0,1-3.34-5.75h31A16,16,0,0,1,405.74,438.89Z"/><path class="cls-3" d="M377.34,426.56h32.51a17.08,17.08,0,0,0-.76-3.67h-31A17.08,17.08,0,0,0,377.34,426.56Z"/><rect class="cls-6" x="392.45" y="417.12" width="2.28" height="21.77"/><path class="cls-1" d="M404,471.23a16.14,16.14,0,0,0,.85,5.13h31a16.42,16.42,0,0,0,.84-5.13,13.94,13.94,0,0,0-.07-1.45,17.3,17.3,0,0,0-.76-3.68h-31a17.3,17.3,0,0,0-.76,3.68A13.94,13.94,0,0,0,404,471.23Z"/><path class="cls-6" d="M432.48,460.34a16.05,16.05,0,0,1,3.34,5.76h-31a16.05,16.05,0,0,1,3.34-5.76Z"/><path class="cls-6" d="M432.48,482.11H408.19a16.1,16.1,0,0,1-3.34-5.75h31A16.1,16.1,0,0,1,432.48,482.11Z"/><path class="cls-3" d="M404.08,469.78h32.51a17.3,17.3,0,0,0-.76-3.68h-31A17.3,17.3,0,0,0,404.08,469.78Z"/><rect class="cls-6" x="419.19" y="460.34" width="2.28" height="21.77"/><path class="cls-1" d="M422.71,516.28a16.07,16.07,0,0,0,.85,5.12h31a16.35,16.35,0,0,0,.84-5.12,13.94,13.94,0,0,0-.07-1.45,17.3,17.3,0,0,0-.76-3.68h-31a17.3,17.3,0,0,0-.76,3.68A13.94,13.94,0,0,0,422.71,516.28Z"/><path class="cls-6" d="M451.18,505.39a16,16,0,0,1,3.34,5.76h-31a16,16,0,0,1,3.34-5.76Z"/><path class="cls-6" d="M451.18,527.16H426.89a16.14,16.14,0,0,1-3.34-5.76h31A16.14,16.14,0,0,1,451.18,527.16Z"/><path class="cls-3" d="M422.78,514.83h32.51a17.3,17.3,0,0,0-.76-3.68h-31A17.3,17.3,0,0,0,422.78,514.83Z"/><rect class="cls-6" x="437.89" y="505.39" width="2.28" height="21.77"/><path class="cls-1" d="M420.13,566.63a16.09,16.09,0,0,0,.85,5.13h31a16.37,16.37,0,0,0,.84-5.13,13.94,13.94,0,0,0-.07-1.45,16.62,16.62,0,0,0-.76-3.67H421a17.22,17.22,0,0,0-.77,3.67C420.16,565.66,420.13,566.14,420.13,566.63Z"/><path class="cls-6" d="M448.6,555.74a16.1,16.1,0,0,1,3.34,5.77H421a16.1,16.1,0,0,1,3.34-5.77Z"/><path class="cls-6" d="M448.6,577.51H424.31a16.16,16.16,0,0,1-3.34-5.75h31A16,16,0,0,1,448.6,577.51Z"/><path class="cls-3" d="M420.2,565.18h32.51a16.62,16.62,0,0,0-.76-3.67H421A17.22,17.22,0,0,0,420.2,565.18Z"/><rect class="cls-6" x="435.32" y="555.74" width="2.28" height="21.77"/><path class="cls-1" d="M329.16,672.94a16.14,16.14,0,0,0,.85,5.13h31a16.13,16.13,0,0,0,.84-5.13c0-.49,0-1-.06-1.45a17.22,17.22,0,0,0-.77-3.67H330a17.22,17.22,0,0,0-.77,3.67C329.19,672,329.16,672.45,329.16,672.94Z"/><path class="cls-6" d="M357.64,662.05a16.24,16.24,0,0,1,3.34,5.77H330a16.24,16.24,0,0,1,3.34-5.77Z"/><path class="cls-6" d="M357.64,683.82h-24.3a16.16,16.16,0,0,1-3.34-5.75h31A16.14,16.14,0,0,1,357.64,683.82Z"/><path class="cls-3" d="M329.23,671.49h32.52a17.22,17.22,0,0,0-.77-3.67H330A17.22,17.22,0,0,0,329.23,671.49Z"/><rect class="cls-6" x="344.35" y="662.05" width="2.28" height="21.77"/><polygon class="cls-3" points="295.85 542.17 274.78 600.06 246.39 678.06 236.5 678.06 287.11 539 295.85 542.17"/><polygon class="cls-3" points="357.95 678.06 348.06 678.06 319.67 600.06 298.6 542.17 307.33 539 328.4 596.88 357.95 678.06"/><circle class="cls-2" cx="297.23" cy="530.62" r="17.27"/><circle class="cls-3" cx="297.23" cy="530.62" r="11.76"/><circle class="cls-6" cx="297.23" cy="530.62" r="7.59"/><polygon class="cls-7" points="274.78 600.06 229.13 725.49 219.24 725.49 266.05 596.88 274.78 600.06"/><polygon class="cls-7" points="375.21 725.49 365.33 725.49 319.67 600.06 328.4 596.88 375.21 725.49"/><path class="cls-1" d="M174.32,566.63a16.09,16.09,0,0,1-.85,5.13h-31a16.37,16.37,0,0,1-.84-5.13,13.94,13.94,0,0,1,.07-1.45,17.21,17.21,0,0,1,.76-3.67h31a17.21,17.21,0,0,1,.76,3.67A13.94,13.94,0,0,1,174.32,566.63Z"/><path class="cls-6" d="M145.85,555.74a16.1,16.1,0,0,0-3.34,5.77h31a16.1,16.1,0,0,0-3.34-5.77Z"/><path class="cls-6" d="M145.85,577.51h24.29a16,16,0,0,0,3.34-5.75h-31A16,16,0,0,0,145.85,577.51Z"/><path class="cls-3" d="M174.25,565.18H141.74a17.21,17.21,0,0,1,.76-3.67h31A17.21,17.21,0,0,1,174.25,565.18Z"/><rect class="cls-6" x="156.85" y="555.74" width="2.28" height="21.77"/><path class="cls-1" d="M404.81,613.45a16.35,16.35,0,0,0,.84,5.12h31a16.07,16.07,0,0,0,.85-5.12c0-.49,0-1-.07-1.45a17.31,17.31,0,0,0-.77-3.68h-31a16.71,16.71,0,0,0-.76,3.68A13.94,13.94,0,0,0,404.81,613.45Z"/><path class="cls-6" d="M433.28,602.56a16,16,0,0,1,3.34,5.76h-31a16,16,0,0,1,3.34-5.76Z"/><path class="cls-6" d="M433.28,624.33H409a16.14,16.14,0,0,1-3.34-5.76h31A16.29,16.29,0,0,1,433.28,624.33Z"/><path class="cls-3" d="M404.88,612h32.51a17.31,17.31,0,0,0-.77-3.68h-31A16.71,16.71,0,0,0,404.88,612Z"/><rect class="cls-6" x="419.99" y="602.56" width="2.28" height="21.77"/><path class="cls-1" d="M374,649.32a16.37,16.37,0,0,0,.84,5.13h31a16.09,16.09,0,0,0,.85-5.13c0-.49,0-1-.07-1.45a17.22,17.22,0,0,0-.77-3.67h-31a16.62,16.62,0,0,0-.76,3.67A13.94,13.94,0,0,0,374,649.32Z"/><path class="cls-6" d="M402.42,638.43a16.1,16.1,0,0,1,3.34,5.77h-31a16.1,16.1,0,0,1,3.34-5.77Z"/><path class="cls-6" d="M402.42,660.2H378.13a16,16,0,0,1-3.34-5.75h31A16.16,16.16,0,0,1,402.42,660.2Z"/><path class="cls-3" d="M374,647.87h32.51a17.22,17.22,0,0,0-.77-3.67h-31A16.62,16.62,0,0,0,374,647.87Z"/><rect class="cls-6" x="389.13" y="638.43" width="2.28" height="21.77"/><path class="cls-2" d="M444,561l.81-4.18-10.34-2a140,140,0,0,0,2.1-24.21c0-76.84-62.51-139.36-139.35-139.36S157.87,453.78,157.87,530.62a139.61,139.61,0,0,0,2.19,24.69l-3.41.66.82,4.18,3.41-.67a138.21,138.21,0,0,0,16,41.34l-7,4.24,2.2,3.64,7-4.24a140.53,140.53,0,0,0,28.35,32.65l-3.26,4,3.29,2.7,3.26-4A138.58,138.58,0,0,0,295.1,670v8.74h4.25V670A138.7,138.7,0,0,0,386,638l4.42,5.19,3.24-2.77-4.43-5.19a140.34,140.34,0,0,0,28.15-34.06l8.8,5,2.09-3.7-8.78-5A138.46,138.46,0,0,0,433.68,559Zm-11.68-30.37a135.67,135.67,0,0,1-2,23.4l-16.47-3.16a117.34,117.34,0,0,0,.33-38.63l14.48-2.54-.74-4.19L413.41,508a117.52,117.52,0,0,0-11.66-32.89l8.93-4.95-2.06-3.72-8.95,5a119,119,0,0,0-22.81-28.32l11-12.57A134.77,134.77,0,0,1,432.33,530.62Zm-249.22,0A114.13,114.13,0,0,1,184.48,513l49.66,8.73a63.92,63.92,0,0,0-.64,8.92,62.91,62.91,0,0,0,.82,10.15l-49.45,9.68A114.61,114.61,0,0,1,183.11,530.62Zm187.73-87.09-33.22,37.84a63.61,63.61,0,0,0-15.49-9.4l18.12-47A114.07,114.07,0,0,1,370.84,443.53ZM341.78,421l6-15.64a135.38,135.38,0,0,1,36.88,22.39l-11,12.59A118.4,118.4,0,0,0,341.78,421ZM356.7,530.62a59.73,59.73,0,0,1-.7,9.13l-47-9,47.13-8.29A59.81,59.81,0,0,1,356.7,530.62Zm-19.31,43.82-30.71-36,41.19,23.34A60,60,0,0,1,337.39,574.44Zm-99.64-43.82a59.81,59.81,0,0,1,.58-8.19l47.25,8.31L238.49,540A59.73,59.73,0,0,1,237.75,530.62ZM348.17,500l-41.28,22.87L338,487.39A59.94,59.94,0,0,1,348.17,500Zm-44.66,20.27,17.08-44.3a59.44,59.44,0,0,1,14.22,8.63Zm-4.16-1v-48a58.78,58.78,0,0,1,17.27,3.21Zm-4.25-.63-16.2-44.51a59.43,59.43,0,0,1,16.2-2.84Zm-4.26.74L261.63,483a59.5,59.5,0,0,1,13.27-7.5Zm-2.41,3.79-41.59-24a60,60,0,0,1,11.48-13.38Zm-2.7,3.35-46.67-8.2a58.88,58.88,0,0,1,5.65-15.48Zm.1,8.58-40.56,24.5a59.15,59.15,0,0,1-6-15.39Zm2,3.79L258,575.26a60.11,60.11,0,0,1-10.51-12.1Zm3.15,2.86-16,44.06A59.52,59.52,0,0,1,261.28,578Zm4.16,1V590a59.06,59.06,0,0,1-16.2-2.85Zm4.25-.71,17.41,44.8A58.71,58.71,0,0,1,299.35,590Zm4.41-.42,30.39,35.63a59.54,59.54,0,0,1-13.42,8Zm5.78-6.41,45.64,8.77A58.88,58.88,0,0,1,350,558.06Zm-.17-8.82,40.86-22.63a59.3,59.3,0,0,1,5.16,14.54ZM354,501.63,398,477.21a113.23,113.23,0,0,1,11.19,31.57l-49.63,8.72A63.63,63.63,0,0,0,354,501.63Zm-2.06-3.72a64.12,64.12,0,0,0-11.08-13.72l33.24-37.87A114.66,114.66,0,0,1,396,473.5Zm-33.74-27.47a63.57,63.57,0,0,0-18.8-3.49V416.56a113.67,113.67,0,0,1,36.94,6.84Zm-23-3.49a63.69,63.69,0,0,0-17.66,3.1L260.21,422.7a113.86,113.86,0,0,1,34.89-6.14Zm-21.65,4.57A63.72,63.72,0,0,0,259,479.7l-31.58-39.22a114.24,114.24,0,0,1,28.83-16.32Zm-17.79,10.86A64.1,64.1,0,0,0,243.16,497l-43.65-25.2a114.91,114.91,0,0,1,24.55-28.61ZM241,500.63a63.2,63.2,0,0,0-6.16,16.87l-49.63-8.72a113.23,113.23,0,0,1,12.16-33.34Zm-5.88,44.31a63.27,63.27,0,0,0,6.49,16.78l-43.12,26a113.32,113.32,0,0,1-12.84-33.13Zm8.7,20.42a63.61,63.61,0,0,0,11.46,13.19l-31.88,39a115.22,115.22,0,0,1-22.71-26.16Zm14.75,15.89a63.63,63.63,0,0,0,14.86,8.48l-17.24,47.35a114.19,114.19,0,0,1-29.5-16.83Zm18.85,9.94a63.7,63.7,0,0,0,17.66,3.11v50.38a113.26,113.26,0,0,1-34.89-6.14Zm21.91,3.11a63.27,63.27,0,0,0,18.95-3.55l18.26,47a113.62,113.62,0,0,1-37.21,6.93Zm22.92-5.08a63.61,63.61,0,0,0,14.64-8.79l32.7,38.34a114,114,0,0,1-29.09,17.41Zm17.89-11.54a64.29,64.29,0,0,0,11.41-13.82L395.4,588.7A114.74,114.74,0,0,1,372.83,616Zm13.51-17.52a63,63,0,0,0,5.69-15.43l49.51,9.51A113.23,113.23,0,0,1,397.52,585Zm6.51-19.61a64.91,64.91,0,0,0,.77-9.93,62.43,62.43,0,0,0-.64-8.92L410,513a113.47,113.47,0,0,1-.32,37.09ZM343.84,403.81l-6,15.62a117.66,117.66,0,0,0-38.47-7.12V401.75H295.1v10.56a117.57,117.57,0,0,0-36.34,6.4L253,403a135.21,135.21,0,0,1,90.82.86ZM162.12,530.62A135.31,135.31,0,0,1,249,404.42l5.73,15.74a118.6,118.6,0,0,0-30,17L218,428.79l-3.31,2.67,6.73,8.36a119.29,119.29,0,0,0-25.56,29.8L189.48,466l-2.13,3.68,6.35,3.67A117.65,117.65,0,0,0,181,508l-14.49-2.54-.73,4.19,14.47,2.54a117.81,117.81,0,0,0,.41,39l-16.47,3.22A136.1,136.1,0,0,1,162.12,530.62Zm2.94,28,16.44-3.21A117.47,117.47,0,0,0,194.87,590l-14.35,8.66A134.13,134.13,0,0,1,165.06,558.66Zm17.67,43.6,14.34-8.66a119.26,119.26,0,0,0,23.66,27.25l-10.6,13A136,136,0,0,1,182.73,602.26ZM224,623.54a118.33,118.33,0,0,0,30.74,17.54L249,656.83a134.91,134.91,0,0,1-35.61-20.32Zm29,34.75,5.74-15.75a117.86,117.86,0,0,0,36.34,6.4V665.7A134.51,134.51,0,0,1,253,658.29Zm46.33-9.35a117.74,117.74,0,0,0,38.75-7.23l6.06,15.6a134.09,134.09,0,0,1-44.81,8.39Zm48.77,6.82-6.06-15.61A118.23,118.23,0,0,0,372.37,622l10.86,12.73A135.11,135.11,0,0,1,348.12,655.76ZM386.46,632l-10.87-12.74A119,119,0,0,0,399.1,590.8l14.57,8.25A135.88,135.88,0,0,1,386.46,632Zm29.32-36.61-14.56-8.25A117.4,117.4,0,0,0,413.05,555l16.45,3.16A134.39,134.39,0,0,1,415.78,595.36Z"/><polygon class="cls-8" points="815.22 708.05 815.22 715.63 790.06 725.49 730.61 725.49 775.11 708.05 815.22 708.05"/><path class="cls-6" d="M745.59,702.47a19.13,19.13,0,0,1-5.7,10.82h0c-2.14,2.08-5,2.87-8.26,2.87s-6.14-.79-8.27-2.87h0a19.13,19.13,0,0,1-5.7-10.82,23.79,23.79,0,0,0,2.3,2.78c0-.26-.06-.52-.08-.79a19.7,19.7,0,0,1,.61-11.7,26.07,26.07,0,0,0,.45,2.84c.19-.61.41-1.23.64-1.84a20.63,20.63,0,0,1,3.35-9.43,25,25,0,0,0-.25,2.94c.68-1.2,1.37-2.35,2.05-3.41a21.73,21.73,0,0,1,2.52-5.31c-.09.66-.16,1.28-.2,1.87,1.51-2.11,2.59-3.41,2.59-3.41s1.07,1.3,2.58,3.41c0-.59-.11-1.21-.2-1.87a21.73,21.73,0,0,1,2.52,5.31c.68,1.06,1.37,2.21,2.05,3.41a25,25,0,0,0-.25-2.94,20.63,20.63,0,0,1,3.35,9.43c.23.61.45,1.22.64,1.84a26.07,26.07,0,0,0,.45-2.84,19.7,19.7,0,0,1,.61,11.7c0,.27,0,.53-.08.79A24.65,24.65,0,0,0,745.59,702.47Z"/><polygon class="cls-7" points="732.42 712.22 732.94 725.49 730.29 725.49 730.81 712.22 723.35 700.46 730.88 710.28 731.11 704.33 726.5 697.05 731.18 702.53 731.62 691.27 732.05 702.53 736.73 697.05 732.12 704.33 732.35 710.28 739.88 700.46 732.42 712.22"/><path class="cls-9" d="M779.58,694.75c-1.79,9.48-7.28,14.16-7.62,14.45h0c-2.85,2.78-6.74,3.83-11,3.83s-8.18-1-11-3.83h0c-.35-.29-5.83-5-7.62-14.45a33.29,33.29,0,0,0,3.07,3.71c0-.34-.07-.69-.1-1.05a26.36,26.36,0,0,1,.82-15.63,33.64,33.64,0,0,0,.59,3.79c.26-.82.55-1.63.86-2.45a27.51,27.51,0,0,1,4.47-12.6,34.11,34.11,0,0,0-.33,3.93c.9-1.61,1.83-3.14,2.73-4.56a28.8,28.8,0,0,1,3.37-7.08q-.18,1.31-.27,2.49c2-2.82,3.45-4.55,3.45-4.55s1.44,1.73,3.46,4.55q-.09-1.18-.27-2.49a28.8,28.8,0,0,1,3.37,7.08c.9,1.42,1.83,3,2.73,4.56a34.11,34.11,0,0,0-.33-3.93,27.48,27.48,0,0,1,4.47,12.6c.31.81.6,1.63.86,2.45a34,34,0,0,0,.59-3.79,26.24,26.24,0,0,1,.82,15.62c0,.36-.06.71-.1,1.06A33.29,33.29,0,0,0,779.58,694.75Z"/><polygon class="cls-7" points="762 707.77 762.68 725.49 759.15 725.49 759.84 707.77 749.88 692.07 759.94 705.18 760.24 697.23 754.08 687.51 760.33 694.83 760.91 679.8 761.5 694.83 767.75 687.51 761.59 697.23 761.89 705.18 771.95 692.07 762 707.77"/><path class="cls-6" d="M804.19,702.47a19.13,19.13,0,0,1-5.7,10.82h0c-2.14,2.08-5.05,2.87-8.27,2.87s-6.13-.79-8.26-2.87h0a19.13,19.13,0,0,1-5.7-10.82,23.79,23.79,0,0,0,2.3,2.78c0-.26-.06-.52-.08-.79a19.7,19.7,0,0,1,.61-11.7,26.07,26.07,0,0,0,.45,2.84c.19-.61.41-1.23.64-1.84a20.63,20.63,0,0,1,3.35-9.43,25,25,0,0,0-.25,2.94c.68-1.2,1.37-2.35,2-3.41a21.73,21.73,0,0,1,2.52-5.31c-.09.66-.16,1.28-.2,1.87,1.51-2.11,2.58-3.41,2.58-3.41s1.08,1.3,2.59,3.41c0-.59-.11-1.21-.2-1.87a21.73,21.73,0,0,1,2.52,5.31c.68,1.06,1.37,2.21,2,3.41a25,25,0,0,0-.25-2.94,20.63,20.63,0,0,1,3.35,9.43c.23.61.45,1.22.64,1.84a26.07,26.07,0,0,0,.45-2.84,19.79,19.79,0,0,1,.61,11.7c0,.27-.05.53-.08.79A24.65,24.65,0,0,0,804.19,702.47Z"/><polygon class="cls-7" points="791.02 712.22 791.53 725.49 788.89 725.49 789.41 712.22 781.95 700.46 789.48 710.28 789.71 704.33 785.1 697.05 789.78 702.53 790.21 691.27 790.65 702.53 795.33 697.05 790.72 704.33 790.95 710.28 798.48 700.46 791.02 712.22"/><polygon class="cls-8" points="303.69 708.05 176.84 708.05 132.33 725.49 259.19 725.49 303.69 708.05"/><path class="cls-6" d="M206.23,702.47a19.13,19.13,0,0,1-5.7,10.82h0c-2.14,2.08-5.05,2.87-8.27,2.87s-6.13-.79-8.26-2.87h0a19,19,0,0,1-5.71-10.82,24.84,24.84,0,0,0,2.31,2.78c0-.26-.06-.52-.08-.79a19.7,19.7,0,0,1,.61-11.7c.11,1,.26,2,.44,2.84.2-.61.42-1.23.65-1.84a20.39,20.39,0,0,1,3.35-9.43,25,25,0,0,0-.25,2.94c.67-1.2,1.37-2.35,2-3.41a21.36,21.36,0,0,1,2.52-5.31c-.09.66-.16,1.28-.2,1.87,1.5-2.11,2.58-3.41,2.58-3.41s1.08,1.3,2.59,3.41c0-.59-.11-1.21-.2-1.87a21.73,21.73,0,0,1,2.52,5.31c.68,1.06,1.37,2.21,2.05,3.41a27.34,27.34,0,0,0-.25-2.94,20.47,20.47,0,0,1,3.34,9.43c.24.61.46,1.22.65,1.84a23.93,23.93,0,0,0,.44-2.84,19.73,19.73,0,0,1,.62,11.7c0,.27,0,.53-.08.79A24.65,24.65,0,0,0,206.23,702.47Z"/><path class="cls-9" d="M240.22,694.75c-1.79,9.48-7.28,14.16-7.62,14.45h0c-2.85,2.78-6.75,3.83-11,3.83s-8.18-1-11-3.83h0c-.34-.29-5.83-5-7.61-14.45a33.29,33.29,0,0,0,3.07,3.71c0-.34-.07-.69-.1-1.05a26.32,26.32,0,0,1,.81-15.63,33.54,33.54,0,0,0,.6,3.79c.26-.82.55-1.63.86-2.45a27.28,27.28,0,0,1,4.47-12.6,34.26,34.26,0,0,0-.34,3.93c.91-1.61,1.84-3.14,2.74-4.56a28.8,28.8,0,0,1,3.37-7.08c-.13.87-.21,1.7-.27,2.49,2-2.82,3.45-4.55,3.45-4.55s1.44,1.73,3.45,4.55c-.05-.79-.14-1.62-.26-2.49a28.38,28.38,0,0,1,3.36,7.08c.91,1.42,1.84,3,2.74,4.56a34.26,34.26,0,0,0-.34-3.93,27.4,27.4,0,0,1,4.48,12.6c.31.81.6,1.63.86,2.45a34,34,0,0,0,.59-3.79,26.33,26.33,0,0,1,.82,15.62c0,.36-.06.71-.1,1.06A34.43,34.43,0,0,0,240.22,694.75Z"/><path class="cls-6" d="M264.83,702.47a19.13,19.13,0,0,1-5.7,10.82h0c-2.14,2.08-5.05,2.87-8.27,2.87s-6.13-.79-8.26-2.87h0a19,19,0,0,1-5.71-10.82,24.84,24.84,0,0,0,2.31,2.78c0-.26-.06-.52-.08-.79a19.7,19.7,0,0,1,.61-11.7c.11,1,.26,2,.44,2.84.2-.61.42-1.23.65-1.84a20.39,20.39,0,0,1,3.35-9.43,25,25,0,0,0-.25,2.94c.67-1.2,1.37-2.35,2-3.41a21,21,0,0,1,2.52-5.31c-.09.66-.16,1.28-.2,1.87,1.5-2.11,2.58-3.41,2.58-3.41s1.08,1.3,2.59,3.41c-.05-.59-.11-1.21-.2-1.87a21.73,21.73,0,0,1,2.52,5.31c.68,1.06,1.37,2.21,2.05,3.41,0-.9-.11-1.88-.25-2.94a20.47,20.47,0,0,1,3.34,9.43c.24.61.46,1.22.65,1.84a23.93,23.93,0,0,0,.44-2.84,19.73,19.73,0,0,1,.62,11.7c0,.27-.05.53-.08.79A24.65,24.65,0,0,0,264.83,702.47Z"/><polygon class="cls-7" points="251.66 712.22 252.17 725.49 249.53 725.49 250.04 712.22 242.59 700.46 250.12 710.28 250.35 704.33 245.74 697.05 250.42 702.53 250.85 691.27 251.29 702.53 255.97 697.05 251.35 704.33 251.59 710.28 259.11 700.46 251.66 712.22"/><path class="cls-6" d="M147.63,702.47a19.13,19.13,0,0,1-5.7,10.82h0c-2.14,2.08-5,2.87-8.27,2.87s-6.13-.79-8.26-2.87h0a19,19,0,0,1-5.7-10.82,23.79,23.79,0,0,0,2.3,2.78c0-.26-.06-.52-.08-.79a19.7,19.7,0,0,1,.61-11.7,26.07,26.07,0,0,0,.45,2.84c.19-.61.41-1.23.64-1.84a20.51,20.51,0,0,1,3.35-9.43,25,25,0,0,0-.25,2.94c.67-1.2,1.37-2.35,2-3.41a21.36,21.36,0,0,1,2.52-5.31c-.09.66-.16,1.28-.2,1.87,1.51-2.11,2.58-3.41,2.58-3.41s1.08,1.3,2.59,3.41c0-.59-.11-1.21-.2-1.87a21.73,21.73,0,0,1,2.52,5.31c.68,1.06,1.37,2.21,2.05,3.41a25,25,0,0,0-.25-2.94,20.63,20.63,0,0,1,3.35,9.43c.23.61.45,1.22.64,1.84a26.07,26.07,0,0,0,.45-2.84,19.79,19.79,0,0,1,.61,11.7c0,.27,0,.53-.08.79A24.65,24.65,0,0,0,147.63,702.47Z"/><path class="cls-9" d="M181.62,694.75c-1.79,9.48-7.28,14.16-7.62,14.45h0c-2.85,2.78-6.74,3.83-11,3.83s-8.18-1-11-3.83h0c-.34-.29-5.83-5-7.61-14.45a33.29,33.29,0,0,0,3.07,3.71c0-.34-.07-.69-.1-1.05a26.32,26.32,0,0,1,.81-15.63,33.54,33.54,0,0,0,.6,3.79c.26-.82.55-1.63.86-2.45a27.28,27.28,0,0,1,4.47-12.6,36.67,36.67,0,0,0-.34,3.93c.91-1.61,1.84-3.14,2.74-4.56a28.8,28.8,0,0,1,3.37-7.08q-.18,1.31-.27,2.49c2-2.82,3.45-4.55,3.45-4.55s1.44,1.73,3.45,4.55c-.05-.79-.14-1.62-.26-2.49a28.8,28.8,0,0,1,3.37,7.08c.9,1.42,1.83,3,2.73,4.56a36.51,36.51,0,0,0-.33-3.93,27.48,27.48,0,0,1,4.47,12.6c.31.81.6,1.63.86,2.45a34,34,0,0,0,.59-3.79,26.24,26.24,0,0,1,.82,15.62c0,.36-.06.71-.1,1.06A34.43,34.43,0,0,0,181.62,694.75Z"/><polygon class="cls-7" points="134.46 712.22 134.97 725.49 132.33 725.49 132.84 712.22 125.39 700.46 132.92 710.28 133.15 704.33 128.54 697.05 133.22 702.53 133.65 691.27 134.09 702.53 138.77 697.05 134.16 704.33 134.39 710.28 141.91 700.46 134.46 712.22"/><polygon class="cls-7" points="164.03 707.77 164.72 725.49 161.19 725.49 161.87 707.77 151.92 692.07 161.97 705.18 162.28 697.23 156.12 687.51 162.37 694.83 162.95 679.8 163.53 694.83 169.79 687.51 163.63 697.23 163.93 705.18 173.99 692.07 164.03 707.77"/><polygon class="cls-7" points="193.06 712.22 193.57 725.49 190.93 725.49 191.44 712.22 183.99 700.46 191.52 710.28 191.75 704.33 187.14 697.05 191.82 702.53 192.25 691.27 192.69 702.53 197.37 697.05 192.76 704.33 192.99 710.28 200.51 700.46 193.06 712.22"/><polygon class="cls-7" points="222.63 707.77 223.32 725.49 219.79 725.49 220.47 707.77 210.52 692.07 220.57 705.18 220.88 697.23 214.72 687.51 220.97 694.83 221.55 679.8 222.13 694.83 228.38 687.51 222.22 697.23 222.53 705.18 232.58 692.07 222.63 707.77"/><ellipse class="cls-8" cx="779.58" cy="883.12" rx="44.18" ry="12.47"/><ellipse class="cls-8" cx="463.18" cy="871.96" rx="140.14" ry="21.33"/><path class="cls-8" d="M631.55,815.1l-.34-.32a1.83,1.83,0,0,0-2.59.05l-14.47,15H589.77l11.27-10a2.06,2.06,0,0,0-2.74-3.09L461.65,938.13a2.07,2.07,0,0,0-.17,2.92h0a2.06,2.06,0,0,0,2.91.17l58.37-51.83v.47h33.66l-45.83,47.61a1.85,1.85,0,0,0,.05,2.6l.34.32a1.83,1.83,0,0,0,2.59,0l71-73.82h1.89v-2L615.9,834h.2v-.2l15.5-16.1A1.84,1.84,0,0,0,631.55,815.1ZM568.7,848.59h27.43l-13.28,13.8h-29.7Zm-8.31,37.14H526.88l21.62-19.21h30.38Zm39.72-41.27H573.35L585.12,834h25Z"/><path class="cls-7" d="M611.73,648.61V807.43c0,.35,0,.69,0,1a12.62,12.62,0,0,1-3.85,8.07,11.62,11.62,0,0,1-2.13,1.64,12.47,12.47,0,0,1-6.59,1.87H327.23a12.61,12.61,0,0,1-12.61-12.61V648.61A12.6,12.6,0,0,1,327.23,636H599.12A12.61,12.61,0,0,1,611.73,648.61Z"/><rect class="cls-6" x="333.01" y="653.2" width="260.33" height="149.64"/><rect class="cls-1" x="333.01" y="774.7" width="260.33" height="27.98"/><rect class="cls-7" x="453.2" y="820.04" width="19.96" height="48.18"/><polygon class="cls-7" points="504.03 885.29 422.32 885.29 422.32 876.13 453.2 868.22 473.28 868.22 504.03 876.13 504.03 885.29"/><path class="cls-6" d="M629.83,804.5q-.76,6.69-2,14.18l0,.05c-.12.14-.48.55-1,1.08h-9.73a11.4,11.4,0,0,1-.45-1.73,8.61,8.61,0,0,1-.17-1.08,15.53,15.53,0,0,1,1.25-8.33h0c2.17-5.26,5.54-9-.05-15-4.27-4.57-6.12-10.77-1-16.47,3.78-4.25,2.09-12.82-5.1-15.87-5.29-2.25-5.57-8.16-.46-10.92,4.67-2.51,2.16-9.46-3.64-9.68-6.39-.22,0-9-6.43-18.42C618.38,730.3,636.43,746.78,629.83,804.5Z"/><path class="cls-8" d="M610.05,819.81v-1.12h1.6v1.12h5.67a.7.7,0,0,0-.07-.22c-.26-.88-.53-1.74-.8-2.59-10.09-31.3-23.56-45.3-35.19-51.49h0A40.06,40.06,0,0,0,564,760.74c9.78,4,6.38,10.31,11.64,12.27,4.71,1.75,7.45,7.62,7.45,9.42a12.06,12.06,0,0,0,1.87,7.06,6.11,6.11,0,0,0,5.39,2.58,9.65,9.65,0,0,1,2.15.16h0a5.23,5.23,0,0,1,3.74,2.33l.07.1a1.3,1.3,0,0,0,.08.17,8.11,8.11,0,0,1,.42,5.52c-.09.41-.21.84-.33,1.25-2,6.31,1.06,7.48,6.06,9.57s5.42,5.1,5.38,8.64Z"/><path class="cls-1" d="M619.47,814.89a15.8,15.8,0,0,1-2.22,4.7,1,1,0,0,1-.17.22h-5.52a9.69,9.69,0,0,1-.92-1.08l-.25-.33a13,13,0,0,1-2.43-6.78c-.07-.85-.08-1.68-.08-2.47,0-4.3.53-7.94-5.36-10.4-1-.42-1.95-.81-2.78-1.2a7.09,7.09,0,0,1-3.37-2.72,1.3,1.3,0,0,1-.08-.17.12.12,0,0,1,0-.08c-.58-1.25-.57-2.93.21-5.4,1.48-4.69.62-9.68-6.14-9.53-5,.1-7.26-4.15-7.26-9.64a10.3,10.3,0,0,0-1.8-4.5h0a12.12,12.12,0,0,0-5.63-4.92c-5.26-2-1.86-8.24-11.64-12.26,12.59.56,37.9,7.26,53.73,60.34h0C618.31,810.68,618.89,812.75,619.47,814.89Z"/><path class="cls-6" d="M678.56,753.18c-9.17,3.78-6,9.66-10.91,11.5-4.42,1.65-7,7.14-7,8.83,0,5.15-2.14,9.14-6.81,9-6.33-.13-7.13,4.54-5.75,8.94,1.87,5.92-1,7-5.69,9-6,2.5-4.94,6.28-5,10.76a12.66,12.66,0,0,1-2.34,7.67c-.26.35-.5.66-.73.93h-5.83a8.15,8.15,0,0,1-.68-1.08,16.44,16.44,0,0,1-1.27-3.15q1.58-5.91,3.3-11.08C644.73,759.54,667.18,753.69,678.56,753.18Z"/><path class="cls-1" d="M695.4,784.58c-8.46-.14-8,5.56-12.45,5.33-4-.2-7.89,3.25-8.45,4.58-1.75,4-4.77,6.44-8.4,4.78-4.92-2.24-7.12,1.15-7.53,5.08-.53,5.26-3.15,5.16-7.49,5.11-7.51-.08-5.69,6.06-10,10.35h-7.54a13.14,13.14,0,0,1-.06-3.85q2-2.49,3.87-4.75C665.52,778,686,781,695.4,784.58Z"/><path class="cls-10" d="M610.68,816.54h-.6v3.27h-4a8.1,8.1,0,0,1-2.68-3.38,12.31,12.31,0,0,1-2.19,1.69c-.24,0-.51,0-.79,0-3.24-.05-3.73-1.11-4-5.05a6.93,6.93,0,0,0-.56-2.38v0a3.33,3.33,0,0,0-1.67-1.77h0a4.12,4.12,0,0,0-3.27.23c-2.74,1.16-4.94-.7-6.16-3.74a7.92,7.92,0,0,0-6.22-3.6c-3.36.08-.5-3.44-10.64-3.16a32,32,0,0,1,28.93,1.76A33.34,33.34,0,0,1,607,810.22c.32.45.63.93.94,1.4A48.3,48.3,0,0,1,610.68,816.54Z"/><path class="cls-6" d="M610.64,818.73a5,5,0,0,1-.33,1.08h-4.23a8.1,8.1,0,0,1-2.68-3.38c-1.24-2.75-1.35-5.47-5.67-5.54a6.93,6.93,0,0,1-1.9-.24v0a2.32,2.32,0,0,1-1.67-1.77h0a14,14,0,0,1-.45-3c-.21-2.94-1.79-5.51-5.51-3.94-2.74,1.16-5-.7-6.16-3.74a6.44,6.44,0,0,0-2.15-2.21,7.1,7.1,0,0,0-4.07-1.39c-3.36.08-.5-3.45-10.64-3.16a32.41,32.41,0,0,1,19.76-1.91,29.38,29.38,0,0,1,7.54,2.74h0a30,30,0,0,1,3.74,2.33l0,0a29.73,29.73,0,0,1,3.49,3,40.09,40.09,0,0,1,7.63,10.56c.17.34.34.68.51,1a57.24,57.24,0,0,1,2.83,7s0,.23,0,.58h0A8.79,8.79,0,0,1,610.64,818.73Z"/><rect class="cls-8" x="361.73" y="620.54" width="243.25" height="112.56" transform="translate(-87.78 72.24) rotate(-7.84)"/><rect class="cls-1" x="342.07" y="604.07" width="260.33" height="112.56" transform="translate(-85.64 70.57) rotate(-7.84)"/><polygon class="cls-11" points="786.62 875.78 788.77 881.18 790.9 879.68 788.87 874.63 786.62 875.78"/><polygon class="cls-12" points="788.77 881.18 787.01 881.68 785.07 877.24 786.76 876.12 788.77 881.18"/><polygon class="cls-11" points="775.51 883.74 777.61 889.16 780.09 887.66 777.98 881.94 775.51 883.74"/><polygon class="cls-12" points="777.61 889.16 775.62 889.58 773.53 884.74 775.51 883.74 777.61 889.16"/><polygon class="cls-7" points="755.53 832.35 772.02 886.39 791.53 873.09 775.59 826.23 755.53 832.35"/><polygon class="cls-11" points="755.53 832.35 752.41 833.31 768.85 887.17 772.02 886.39 755.53 832.35"/><polygon class="cls-12" points="745.1 880.92 743.9 886 746.58 884.81 747.62 880.14 745.1 880.92"/><polygon class="cls-11" points="743.9 886 741.54 885 742.59 881.42 745.1 880.92 743.9 886"/><polygon class="cls-12" points="761.81 874.06 760.58 879.27 763.04 878.17 764.5 872.9 761.81 874.06"/><polygon class="cls-11" points="760.58 879.27 758.4 878.34 759.37 875.04 762.03 873.09 760.58 879.27"/><polygon class="cls-7" points="752.41 833.31 738.7 884.02 764.75 873.73 752.41 833.31"/><polygon class="cls-11" points="752.41 833.31 749.12 832.32 735.71 882.72 738.7 884.02 752.41 833.31"/><polygon class="cls-11" points="749.12 832.32 770.87 826.22 775.59 826.23 752.41 833.31 749.12 832.32"/><path class="cls-1" d="M780.57,850c3,8.5,2.93,17.34-.49,19.51S771,865.81,768,856.56c-2.86-8.86-2.18-17,1.31-18.55S777.64,841.81,780.57,850Z"/><path class="cls-7" d="M774.55,844.83l.1.38v0l3,12.45a1.13,1.13,0,0,1-.58,1.23.79.79,0,0,1-1.12-.37L770.64,847l0,0-.16-.36a2.39,2.39,0,0,1,1.38-2.87A2,2,0,0,1,774.55,844.83Z"/><path class="cls-7" d="M779.49,861.18a1.88,1.88,0,0,1-.88,2.2,1.3,1.3,0,0,1-1.91-.73,1.89,1.89,0,0,1,.9-2.21A1.3,1.3,0,0,1,779.49,861.18Z"/><path class="cls-6" d="M510.63,906.25l-.11-1.9h0l-1.27-20.85a1.34,1.34,0,0,0,0-.21l-1.32-21.7a1.41,1.41,0,0,0,0-.21l-1.31-21.7a1.93,1.93,0,0,0,0-.23l-2.46-40.55a2.07,2.07,0,0,0-4.13.25l1,16.55H471.22l1-16.55a2.06,2.06,0,0,0-4.12-.25l-3.78,62.4v0a2.11,2.11,0,0,0,0,.26v0l-2.6,42.9-.1,1.57-2.05,34a2,2,0,0,0,1.93,2.18h.12a2.08,2.08,0,0,0,2.07-1.94l2-32.82h40.9l2,32.82a2.06,2.06,0,0,0,2.05,1.94h.13a2.05,2.05,0,0,0,1.94-2.18ZM471,819.82h30.28l1.08,17.79H469.88Zm-1.33,21.92h32.94l1.08,17.77h-35.1Zm-1.33,21.9h35.6L505,881.42H467.23Zm-2.4,39.7L467,885.55h38.26l1.08,17.79Z"/><rect class="cls-6" x="499.43" y="870.18" width="3.2" height="4.71"/><rect class="cls-6" x="474.48" y="870.18" width="3.2" height="4.71"/><path class="cls-1" d="M507.46,803.84l-.14,6.6-1.21,60.88H495.35l-5.05-45.4-8.74,45.4h-11.1L473,798.67h0c7.51,2.56,20.32,5.91,34.16,5Z"/><path class="cls-1" d="M473.51,874.58a4.25,4.25,0,0,1-3.41,3.62,3.46,3.46,0,0,0-2.69,3.28H479v-6.9Z"/><path class="cls-1" d="M498.72,874.58a4.25,4.25,0,0,1-3.4,3.62,3.44,3.44,0,0,0-2.69,3.28h11.56v-6.9Z"/><polygon class="cls-13" points="490.3 825.92 493.27 810.44 493.33 854.38 490.3 825.92"/><path class="cls-2" d="M507.46,803.84v6.6c-7-.44-29.27-6.89-34.45-11.77,7.51,2.56,20.32,5.91,34.16,5Z"/><path class="cls-8" d="M548.68,705.28l-5.18,2.37a4.2,4.2,0,0,0-2.62-2.61,20.64,20.64,0,0,1,.87,8.13c-.49,4.19-2.37,16.42-3.81,21.2l-.31-.06c-2.32-.35-3.09,1.67-1.3,3.17l.07,0c-1.23,2.49-6.4,11.67-17,14.35h0l-2.08.74L520,738.55c.18,0,.35.07.54.09a26.57,26.57,0,0,0,5,2.14c1,.31,1.59-.53.75-1.62a15.77,15.77,0,0,0-5.33-4.12,7.24,7.24,0,0,0-13.21-3,4,4,0,0,0,.38.61c-3.52,5-6.56,13.21-6.56,13.21H512.3l-3.07,5.42L504.9,750l.31,2-.3-2c-9.76-.43-17.2-1.93-30.32-10.24l-.3.31h0a1.93,1.93,0,0,0-2.74-2.68c-.26.17-.5.34-.73.52-3.95-3-11.93-12.08-14.81-15.23a20.34,20.34,0,0,1-4.06-7.09,8.11,8.11,0,0,0,.15,4.37l-5.47-.47-3.74.51a16.11,16.11,0,0,0,8.65,3.09c3.68,2.76,12.07,15,15.91,18.5a7.53,7.53,0,0,0-.44,1c-.73,2.15.71,3.37,2.42,2.58l-.06.06s11.17,9.44,20.42,13.14l-.64,2.15L478.67,796a73.77,73.77,0,0,0,6.91,2.69h0c7.52,2.56,20.32,5.91,34.16,5,1-.05,2-.14,3-.25,1.66-.17,3.33-.41,5-.73l-4.27-39.77s13-9,18.47-22.49a1.71,1.71,0,0,0,.95-3l-.53-.52c0-.11.08-.2.12-.33,1.23-4.28,1.61-21,3.09-25.74a43.74,43.74,0,0,0,6.5-6.22Z"/><path class="cls-7" d="M510.93,762.94l4.26,39.77c-1.67.32-3.34.56-5,.73-1,.11-2,.2-3,.25-13.84.89-26.65-2.46-34.16-5h0a73.77,73.77,0,0,1-6.91-2.69l10.49-35.47.64-2.15c-9.25-3.7-20.42-13.14-20.42-13.14l5.2-5.47c13.12,8.31,20.57,9.81,30.32,10.24l14.49,1.89c12.3-3.1,17.3-15,17.3-15l5.63,2.69C524.48,753.6,510.93,762.94,510.93,762.94Z"/><path class="cls-7" d="M594.06,586.77l15.35,111.51-212.5,29.25a42.31,42.31,0,0,1,7.52-15c8-10.28,22-19.34,45.6-30,4.76-2.15,9.9-4.36,15.48-6.66,15.39-6.35,19.95-17.61,22.25-29.92,1.79-9.52,2.23-19.64,5.3-28.59,2.56-7.43,6.93-14,15.39-18.79Z"/><rect class="cls-7" x="358.6" y="636.65" width="103.92" height="10.82" rx="4.25" transform="matrix(0.99, -0.14, 0.14, 0.99, -83.72, 61.99)"/><rect class="cls-7" x="360.88" y="653.91" width="84.01" height="10.82" rx="4.25" transform="matrix(0.99, -0.14, 0.14, 0.99, -86.15, 61.1)"/><rect class="cls-6" x="363.43" y="673.01" width="39.69" height="12.69" rx="4.98" transform="translate(-89.07 58.62) rotate(-7.84)"/><path class="cls-6" d="M413.81,682.53a7.37,7.37,0,0,1-1-14.68l26.74-3.69a7.38,7.38,0,1,1,2,14.62l-26.75,3.68A7,7,0,0,1,413.81,682.53Zm26.76-16.37a6,6,0,0,0-.73.05l-26.75,3.68a5.31,5.31,0,1,0,1.45,10.52l26.74-3.68a5.31,5.31,0,0,0-.71-10.57Z"/><path class="cls-6" d="M577.07,702.73c4.06-9.94,12.92-28.14,27.35-32.5l3.88,28.2Z"/><path class="cls-6" d="M470.76,701.24c-2.52-5.77,3.39-10.75,11.2-12.19,13.82-2.55,19-12.95,26.14-3.46,6.44,8.53-6.12,16.67-17,20.12C483.5,708.1,473.09,706.59,470.76,701.24Z"/><path class="cls-6" d="M450.16,684.51c-1.79,16.8-15.55,38.64-42.32,29.52l-3.41-1.54c8-10.28,22-19.34,45.6-30A5.3,5.3,0,0,1,450.16,684.51Z"/><path class="cls-6" d="M527.15,596c5.81,15,45.55,25.88,37.66-5.19Z"/><path class="cls-6" d="M539.6,648.73c20.44-2.81,25.26,2.2,22.83,20.3s-12.36,14.56-18.08,14.21-19.85-4.1-19.34-14.17S527.36,650.42,539.6,648.73Z"/><path class="cls-6" d="M579.75,619c-5.48,0-8,13.21-2.68,20.06,4.89,6.25,10.31,3.34,12.85-.41S595,618.9,579.75,619Z"/><path class="cls-6" d="M512.64,639.22c-1.91,6.32-17.14,12.42-24.78,6.8a.39.39,0,0,1-.1-.08c1.79-9.52,2.23-19.64,5.3-28.59C507.23,620.43,515.88,628.49,512.64,639.22Z"/><rect class="cls-7" x="376.7" y="624.62" width="5.45" height="5.89" transform="matrix(0.99, -0.14, 0.14, 0.99, -82.04, 57.61)"/><rect class="cls-7" x="384.27" y="623.58" width="5.45" height="5.89" transform="translate(-81.83 58.63) rotate(-7.84)"/><rect class="cls-7" x="391.84" y="622.54" width="5.45" height="5.89" transform="matrix(0.99, -0.14, 0.14, 0.99, -81.61, 59.65)"/><rect class="cls-7" x="399.4" y="621.5" width="5.45" height="5.89" transform="translate(-81.4 60.67) rotate(-7.84)"/><circle class="cls-6" cx="366.87" cy="629.02" r="4.4"/><circle class="cls-6" cx="358.03" cy="627.69" r="1.88"/><rect class="cls-6" x="600.26" y="586.12" width="5.09" height="112.57" transform="translate(-79.2 84.8) rotate(-7.55)"/><path class="cls-1" d="M504.43,750.57l3-16.14-11.78-5.83c-3.58,4.93-6.72,13.45-6.72,13.45h10.76l-3.36,7.18-4,.76a19.68,19.68,0,0,0,14.48,1.89Z"/><path class="cls-1" d="M507.93,734.84a13,13,0,0,0,.49-2.61,7.25,7.25,0,0,0-13.29-4S497.37,733.25,507.93,734.84Z"/><path class="cls-1" d="M507.93,734.84a28,28,0,0,0,5,2.14c1,.31,1.6-.53.76-1.63a16.17,16.17,0,0,0-5.66-4.28C506,730.1,507.93,734.84,507.93,734.84Z"/><path class="cls-7" d="M496.41,729.91c2.43,1.9,9.28,7.3,9.45,13.05l1.6-8.53Z"/><path class="cls-7" d="M487.84,761.45s-6.73,1.39-11.61.24l1-3.33A55.1,55.1,0,0,0,487.84,761.45Z"/><path class="cls-1" d="M459,738.41a133.17,133.17,0,0,1-14.45-12.94,20.27,20.27,0,0,1-4.06-7.09,8.13,8.13,0,0,0,.15,4.37l-5.47-.48-3.74.52a16.11,16.11,0,0,0,8.65,3.09c4,3,12.19,13.68,15.7,16.42S459,738.41,459,738.41Z"/><path class="cls-2" d="M461.71,740.05a1.93,1.93,0,0,0-2.73-2.68c-2.48,1.66-3.88,3.28-4.54,5.21-.85,2.49,1.22,3.73,3.24,2.06C461.18,741.74,461.71,740.05,461.71,740.05Z"/><path class="cls-1" d="M525,735.37a132.92,132.92,0,0,0,4.12-19,20.28,20.28,0,0,0-.87-8.13,4.14,4.14,0,0,1,2.62,2.6l5.19-2.37,3.42-.61a43.13,43.13,0,0,1-6.5,6.22c-1.47,4.74-1.85,18.22-3.08,22.5S525,735.37,525,735.37Z"/><path class="cls-2" d="M528.42,740.3a1.73,1.73,0,0,0,1.93-2.83,9.36,9.36,0,0,0-5.31-3.16c-2.32-.35-3.08,1.67-1.29,3.17C526.86,740.1,528.42,740.3,528.42,740.3Z"/><ellipse class="cls-8" cx="252.84" cy="966.42" rx="140.14" ry="17.11"/><path class="cls-14" d="M341.11,768.29h-9.24a3,3,0,0,0-2.85,2l-1,3a3,3,0,0,1-2.85,2H286.22a3,3,0,0,1-2.85-2l-1-3a3,3,0,0,0-2.85-2h-9.25A13.29,13.29,0,0,0,257,781.57V951.19a13.29,13.29,0,0,0,13.28,13.28h70.87a13.29,13.29,0,0,0,13.29-13.28V781.57A13.29,13.29,0,0,0,341.11,768.29Z"/><path class="cls-8" d="M304.14,778.8H385a11.3,11.3,0,0,1,11.3,11.3v72a0,0,0,0,1,0,0h-92.2a0,0,0,0,1,0,0V778.8A0,0,0,0,1,304.14,778.8Z"/><path class="cls-1" d="M256.6,950.19a11.35,11.35,0,0,1-1.12,3.6,1.45,1.45,0,0,1-.1.18l-4,.55a7.74,7.74,0,0,1-.78-.69l-.21-.21A9.49,9.49,0,0,1,248,949c-.13-.6-.22-1.2-.3-1.77-.39-3.1-.4-5.77-4.89-7-.77-.21-1.48-.39-2.11-.59A5.1,5.1,0,0,1,238,938a.44.44,0,0,1-.08-.11l0,0a5.47,5.47,0,0,1-.39-3.91c.6-3.52-.5-7-5.36-6.25-3.57.57-5.63-2.27-6.17-6.21a7.55,7.55,0,0,0-1.75-3.06h0a8.82,8.82,0,0,0-4.54-3c-4-.89-2.16-5.74-9.59-7.67,9.12-.84,28,1.47,44.64,38.09h0Q255.67,948,256.6,950.19Z"/><path class="cls-6" d="M252.66,938.63a6.55,6.55,0,0,1-1,1.11l-5-2.28a10.33,10.33,0,0,1-1.36-5.45c0-3.93,1.35-7.2-3.73-9.61a8.57,8.57,0,0,1-2.12-1.32h0a3.05,3.05,0,0,1-1-3h0a17.88,17.88,0,0,1,1.09-3.82c1.33-3.59.85-7.49-4.4-7.63-3.88-.1-5.49-3.5-5.28-7.75a8.55,8.55,0,0,0-1.36-3.77,9.26,9.26,0,0,0-4.08-3.84c-4-1.72,1.26-4.35-10.9-9.47A42.14,42.14,0,0,1,238,890.15a38.1,38.1,0,0,1,7.46,7.31h0a38.15,38.15,0,0,1,3.18,4.78s0,0,0,0a40.72,40.72,0,0,1,2.53,5.4,52.35,52.35,0,0,1,3.35,16.62c0,.49,0,1,.05,1.49a75.45,75.45,0,0,1-.4,9.78s-.09.28-.26.7v0A12.92,12.92,0,0,1,252.66,938.63Z"/><path class="cls-6" d="M414.46,873.6c-10.83,4.46-7.07,11.4-12.89,13.58-5.21,1.94-8.25,8.43-8.25,10.42,0,6.08-2.53,10.79-8,10.67-7.47-.15-8.42,5.36-6.78,10.55,2.2,7-1.18,8.29-6.72,10.6-7.06,3-5.84,7.41-5.94,12.7a15,15,0,0,1-2.77,9c-.3.42-.59.78-.86,1.11h-6.89a10.55,10.55,0,0,1-.8-1.28,19.57,19.57,0,0,1-1.5-3.72c1.25-4.65,2.54-9,3.9-13.09C374.52,881.11,401,874.2,414.46,873.6Z"/><path class="cls-1" d="M427.34,906.8c-9.26-.15-8.71,13-13.63,12.73-4.39-.22-8.64,3.56-9.26,5-1.91,4.42-5.22,7.06-9.19,5.25-5.4-2.46-7.81,1.25-8.25,5.55-.58,5.77-3.45,5.65-8.2,5.61-8.23-.1-6.23,6.62-10.92,11.33h-8.26a14.66,14.66,0,0,1-.07-4.22c1.44-1.81,2.92-3.5,4.24-5.2C386,914.34,417.08,902.91,427.34,906.8Z"/><rect class="cls-7" x="251.37" y="762.7" width="108.61" height="207.37" rx="15.65"/><path class="cls-6" d="M341.11,768.29h-9.24a3,3,0,0,0-2.85,2l-1,3a3,3,0,0,1-2.85,2H286.22a3,3,0,0,1-2.85-2l-1-3a3,3,0,0,0-2.85-2h-9.25A13.29,13.29,0,0,0,257,781.57V951.19a13.29,13.29,0,0,0,13.28,13.28h70.87a13.29,13.29,0,0,0,13.29-13.28V781.57A13.29,13.29,0,0,0,341.11,768.29Z"/><rect class="cls-1" x="232.51" y="816.09" width="97.44" height="30.48"/><rect class="cls-7" x="232.51" y="816.09" width="3.27" height="30.48"/><rect class="cls-7" x="240.78" y="820.64" width="21.87" height="21.87"/><rect class="cls-6" x="270.72" y="820.64" width="50.79" height="4.94" rx="1.94"/><rect class="cls-6" x="270.72" y="829.1" width="50.79" height="4.94" rx="1.94"/><rect class="cls-6" x="270.72" y="837.57" width="50.79" height="4.94" rx="1.94"/><rect class="cls-1" x="256.96" y="848.37" width="97.44" height="30.48"/><rect class="cls-7" x="265.23" y="852.92" width="21.87" height="21.87"/><rect class="cls-6" x="295.17" y="869.85" width="50.79" height="4.94" rx="1.94"/><rect class="cls-1" x="256.96" y="880.66" width="97.44" height="30.48"/><rect class="cls-7" x="265.23" y="885.2" width="21.87" height="21.87"/><rect class="cls-6" x="295.17" y="885.2" width="50.79" height="4.94" rx="1.94"/><rect class="cls-6" x="295.17" y="893.67" width="50.79" height="4.94" rx="1.94"/><rect class="cls-6" x="295.17" y="902.14" width="50.79" height="4.94" rx="1.94"/><rect class="cls-1" x="256.96" y="912.94" width="97.44" height="30.48"/><path class="cls-1" d="M354.4,945.23v5.95a13.29,13.29,0,0,1-13.28,13.29H270.25A13.29,13.29,0,0,1,257,951.18v-5.95Z"/><rect class="cls-7" x="265.23" y="917.48" width="21.87" height="21.87"/><path class="cls-7" d="M287.1,949.77v14.7H270.25a13.27,13.27,0,0,1-5-1V949.77Z"/><rect class="cls-6" x="295.17" y="917.48" width="50.79" height="4.94" rx="1.94"/><rect class="cls-6" x="295.17" y="925.95" width="50.79" height="4.94" rx="1.94"/><rect class="cls-6" x="295.17" y="934.42" width="50.79" height="4.94" rx="1.94"/><rect class="cls-6" x="295.17" y="949.77" width="50.79" height="4.94" rx="1.94"/><rect class="cls-6" x="295.17" y="957.36" width="50.79" height="4.94" rx="1.94"/><rect class="cls-6" x="295.17" y="852.92" width="50.79" height="4.94" rx="1.94"/><rect class="cls-6" x="295.17" y="861.39" width="50.79" height="4.94" rx="1.94"/><path class="cls-6" d="M169.07,884c-8,11.07-9.64,22.77-15.76,34.4-3.63,6.9-8,13.79-19.39,26.36,20.31,6.53,62.3,16,78.31,14.52.08-20.68-.28-47.89-20.3-66.94A29.9,29.9,0,0,0,169.07,884Z"/><polygon class="cls-6" points="203.29 955.68 199.58 965.11 196.77 964.79 199.58 955.68 203.29 955.68"/><polygon class="cls-6" points="137.84 944.27 129.27 953.46 132.32 954.67 141.12 946.21 137.84 944.27"/><path class="cls-2" d="M196.48,865.17c0,2-.13,4.08-.33,6.17-3.45-1.68-8.93-5.44-10.83-8.9h2.55Z"/><path class="cls-7" d="M195,963.48l6.76.76-3,4.61s7.79,1,10,4.88a46.68,46.68,0,0,1-5.33,0l-9.56-1.68,1.59-5.07Z"/><path class="cls-7" d="M128.38,952l5.83,3.5-4.61,3s6.91,2,7.89,6.3c0,0-4.81-.09-6.94-1.37l-6.86-5.24,3.31-3.41Z"/><path class="cls-1" d="M211.4,843.67s16.77-8.87,18.15-10,.58-6,3-7.17v8.8L210,850.89Z"/><path class="cls-1" d="M211.4,854.69s16.77-8.87,18.15-10.05.58-6,3-7.17v8.8L210,861.91Z"/><path class="cls-1" d="M205.48,831.14c0,4.07-4,13.17-4,13.17l-8.12-.42-.22,7.61L187.57,855l-2.77-4,4.66-18.39Z"/><path class="cls-3" d="M187.67,854.19l24.26-12.29s.58,15.06-4.24,23.94A53.51,53.51,0,0,1,187.92,864C182.26,862.26,181.87,857.4,187.67,854.19Z"/><path class="cls-7" d="M205.48,831.14c-1.85-5.72-7.76-9.33-19.62-3.53s-15.49,6-20.44,3.58c6.21,8.41,12,12.46,21.07,11.66,7-.63,4.47-7.08,10.7-7.91C200.2,834.54,202.73,833,205.48,831.14Z"/><path class="cls-7" d="M196.48,865.17c0,2-.13,4.08-.33,6.17a103.17,103.17,0,0,1-4.22,21c-7.07-.37-16.87-3.27-22.86-8.35.91-7.13,6.68-12.3,7.72-21.7,1.08-9.63,9.43-12.55,12.41-12.4C194.81,850.21,196.53,857,196.48,865.17Z"/><path class="cls-7" d="M189.35,854.4l26.12-3.83s-4.11,14-11.28,20.74a51.81,51.81,0,0,1-17.62-7.84C181.88,860.17,183,855.58,189.35,854.4Z"/><path class="cls-6" d="M199.11,259.94a3.38,3.38,0,0,1-3.37,3.37h-34.8a3.37,3.37,0,0,0,0,6.73H182.2a3.37,3.37,0,1,1,0,6.73H57.86a3.37,3.37,0,0,1,0-6.73H103a3.37,3.37,0,0,0,0-6.73H71.4a3.37,3.37,0,0,1,0-6.74H195.74A3.37,3.37,0,0,1,199.11,259.94Z"/><path class="cls-6" d="M647.08,127.18a3.93,3.93,0,0,1-3.93,3.92H602.53a4,4,0,0,0-3.94,3.93,3.93,3.93,0,0,0,3.94,3.94h24.81a3.93,3.93,0,1,1,0,7.86H482.16a3.93,3.93,0,0,1-3.93-3.93,3.94,3.94,0,0,1,3.93-3.93h52.68a3.94,3.94,0,0,0,0-7.87H498a3.93,3.93,0,0,1,0-7.86H643.15A3.93,3.93,0,0,1,647.08,127.18Z"/><path class="cls-1" d="M146.07,63.2a5,5,0,0,1-5,5H17.75a5,5,0,0,1,0-9.93H44.54a5,5,0,0,0,0-9.92H5a5,5,0,0,1,0-9.92H128.33a5,5,0,0,1,0,9.92H108.12a5,5,0,1,0,0,9.92h33A5,5,0,0,1,146.07,63.2Z"/></g></g></svg>