<svg xmlns="http://www.w3.org/2000/svg" width="101.993" height="115.734" viewBox="0 0 101.993 115.734">
  <g id="グループ_82" data-name="グループ 82" transform="translate(83 -7548)">
    <g id="グループ_73" data-name="グループ 73" transform="translate(-83 7548)">
      <path id="前面オブジェクトで型抜き_6" data-name="前面オブジェクトで型抜き 6" d="M51,115.735h0L0,86.8V28.934L51,0l51,28.934V86.8L51,115.734ZM30.5,42.626c-6.762.3-10.946,2.11-11.779,5.087-.808,2.878,1.646,6.473,6.911,10.122-.015.161-.029.344-.044.576-.04.591-.061,1.181-.061,1.754A25.452,25.452,0,0,0,73.845,71.33c-.764.082-1.555.14-2.35.176-.7.03-1.4.046-2.095.046a66.61,66.61,0,0,1-9.507-.744,2.818,2.818,0,0,0,.8-.656,64.809,64.809,0,0,0,8.7.637c.7,0,1.4-.015,2.065-.044.973-.044,1.9-.12,2.761-.227-.132.3-.253.554-.378.811.115-.235.212-.44.3-.646,5.251-.619,8.407-2.3,9.126-4.875a5.564,5.564,0,0,0-1.038-4.57,19.916,19.916,0,0,0-4.8-4.782l-.456.61c4.242,3.17,6.219,6.2,5.565,8.537-.364,1.3-1.519,2.355-3.432,3.137a18.937,18.937,0,0,1-4.61,1.134,25.187,25.187,0,0,0,1.917-9.706,25.736,25.736,0,0,0-.268-3.7c-1.085-.764-2.3-1.531-3.6-2.279a2.8,2.8,0,0,0,.179-.774c1.169.664,2.262,1.34,3.248,2.007A25.45,25.45,0,0,0,65.587,39.331a2.821,2.821,0,0,0-2.766-3.367,2.808,2.808,0,0,0-1.928.763,25.383,25.383,0,0,0-8.606-1.973c-.424-.023-.873-.034-1.337-.034a25.41,25.41,0,0,0-16.8,6.347c-.55.485-1.081.994-1.58,1.515H32.6a82.852,82.852,0,0,1,21.447,3.306,93.264,93.264,0,0,1,14.039,5.14,2.827,2.827,0,0,0-.524.6,92.788,92.788,0,0,0-13.72-5,82.1,82.1,0,0,0-21.25-3.279c-.242,0-.482,0-.72.005a25.327,25.327,0,0,0-6.146,13.624,21.978,21.978,0,0,1-4.972-4.59c-1.228-1.663-1.666-3.165-1.3-4.464s1.519-2.354,3.432-3.137a23.509,23.509,0,0,1,7.649-1.395l-.034-.76h0ZM51.351,28.092a2.818,2.818,0,1,0,2.819,2.817A2.821,2.821,0,0,0,51.351,28.092Zm5.117,42.147h0c-2.793-.521-5.659-1.192-8.516-1.993a96.255,96.255,0,0,1-10.853-3.732,2.81,2.81,0,0,0,.785-.5,96.174,96.174,0,0,0,10.274,3.5c2.6.729,5.213,1.35,7.766,1.847a2.805,2.805,0,0,0,.546.876Zm-23.139-7.4,0,0a57.212,57.212,0,0,1-7.19-4.043c-.194-.13-.375-.254-.552-.379.022-.329.046-.616.074-.878.283.2.585.411.9.625a55.709,55.709,0,0,0,6.617,3.757,2.813,2.813,0,0,0,.152.916Z" transform="translate(0 0)" fill="#f8e4e4"/>
      <circle id="楕円形_86" data-name="楕円形 86" cx="0.292" cy="0.292" r="0.292" transform="translate(51.352 29.547)" fill="#f8e4e4"/>
      <circle id="楕円形_96" data-name="楕円形 96" cx="2.138" cy="2.138" r="2.138" transform="translate(49.214 38.103)" fill="#f8e4e4" opacity="0.401" style="isolation: isolate"/>
      <circle id="楕円形_97" data-name="楕円形 97" cx="2.138" cy="2.138" r="2.138" transform="translate(32.787 53.752)" fill="#f8e4e4" opacity="0.401" style="isolation: isolate"/>
      <circle id="楕円形_98" data-name="楕円形 98" cx="2.138" cy="2.138" r="2.138" transform="translate(56.406 75.233)" fill="#f8e4e4" opacity="0.401" style="isolation: isolate"/>
      <circle id="楕円形_99" data-name="楕円形 99" cx="2.138" cy="2.138" r="2.138" transform="translate(49.214 57.057)" fill="#f8e4e4" opacity="0.401" style="isolation: isolate"/>
      <circle id="楕円形_100" data-name="楕円形 100" cx="2.138" cy="2.138" r="2.138" transform="translate(33.856 68.818)" fill="#f8e4e4" opacity="0.401" style="isolation: isolate"/>
      <circle id="楕円形_101" data-name="楕円形 101" cx="2.138" cy="2.138" r="2.138" transform="translate(60.683 45.588)" fill="#f8e4e4" opacity="0.401" style="isolation: isolate"/>
      <circle id="楕円形_102" data-name="楕円形 102" cx="2.138" cy="2.138" r="2.138" transform="translate(67.779 60.07)" fill="#f8e4e4" opacity="0.401" style="isolation: isolate"/>
      <path id="パス_50" data-name="パス 50" d="M744.535,298.01A3.985,3.985,0,0,0,740.55,302c0,2.2,3.985,9.428,3.985,9.428S748.52,304.2,748.52,302A3.985,3.985,0,0,0,744.535,298.01Zm0,5.929a1.847,1.847,0,1,1,1.847-1.847,1.847,1.847,0,0,1-1.847,1.847Z" transform="translate(-693.183 -252.228)" fill="#f8e4e4"/>
      <path id="パス_51" data-name="パス 51" d="M661.145,363.455a3.985,3.985,0,0,0-3.985,3.985c0,2.2,3.985,9.428,3.985,9.428s3.985-7.227,3.985-9.428A3.985,3.985,0,0,0,661.145,363.455Zm0,5.929a1.847,1.847,0,1,1,1.847-1.847,1.847,1.847,0,0,1-1.847,1.847Z" transform="translate(-625.151 -305.621)" fill="#f8e4e4"/>
      <path id="パス_52" data-name="パス 52" d="M845.341,315.955a3.985,3.985,0,0,0-3.985,3.985c0,2.2,3.985,9.428,3.985,9.428s3.985-7.227,3.985-9.428a3.985,3.985,0,0,0-3.985-3.985Zm0,5.929a1.847,1.847,0,1,1,1.847-1.847A1.847,1.847,0,0,1,845.341,321.884Z" transform="translate(-775.424 -266.868)" fill="#f8e4e4"/>
      <path id="パス_53" data-name="パス 53" d="M744.535,195.093a3.985,3.985,0,0,0-3.985,3.985c0,2.2,3.985,9.428,3.985,9.428s3.985-7.227,3.985-9.428A3.985,3.985,0,0,0,744.535,195.093Zm0,5.929a1.847,1.847,0,1,1,1.847-1.847A1.847,1.847,0,0,1,744.535,201.022Z" transform="translate(-693.183 -168.265)" fill="#f8e4e4"/>
      <path id="パス_54" data-name="パス 54" d="M783.591,398.288a3.985,3.985,0,0,0-3.985,3.985c0,2.2,3.985,9.428,3.985,9.428s3.985-7.227,3.985-9.428A3.985,3.985,0,0,0,783.591,398.288Zm0,5.929a1.847,1.847,0,1,1,1.847-1.847A1.847,1.847,0,0,1,783.591,404.218Z" transform="translate(-725.046 -334.039)" fill="#f8e4e4"/>
      <path id="パス_55" data-name="パス 55" d="M655.34,280.593a3.985,3.985,0,0,0-3.985,3.985c0,2.2,3.985,9.428,3.985,9.428s3.985-7.227,3.985-9.428A3.985,3.985,0,0,0,655.34,280.593Zm0,5.929a1.847,1.847,0,1,1,1.847-1.847A1.847,1.847,0,0,1,655.34,286.522Z" transform="translate(-620.415 -238.02)" fill="#f8e4e4"/>
      <path id="パス_56" data-name="パス 56" d="M806.813,237.843a3.985,3.985,0,0,0-3.985,3.985c0,2.2,3.985,9.428,3.985,9.428s3.985-7.227,3.985-9.428A3.985,3.985,0,0,0,806.813,237.843Zm0,5.929a1.847,1.847,0,1,1,1.847-1.847,1.847,1.847,0,0,1-1.847,1.847Z" transform="translate(-743.992 -203.142)" fill="#f8e4e4"/>
    </g>
  </g>
</svg>
