<svg xmlns="http://www.w3.org/2000/svg" viewBox="0 0 347.34 55.86"><defs><style>.cls-1{fill:#fff;}</style></defs><g id="Layer_2" data-name="Layer 2"><g id="レイヤー_4" data-name="レイヤー 4"><path class="cls-1" d="M95.77,44.58a1,1,0,0,1-.54-1.31l.86-2.09h.78a7.27,7.27,0,0,0,4.76,1.44c2.46,0,4.34-1.27,4.34-4.43V17.66a1,1,0,0,1,1-1h6.2a1,1,0,0,1,1,1V37.41c0,5.74-4.47,8.45-11,8.45A19.18,19.18,0,0,1,95.77,44.58Z"/><path class="cls-1" d="M123.66,16.66h22.62a1,1,0,0,1,.91.6l.56,1.28a1,1,0,0,1-.91,1.4h-14.9a1,1,0,0,0-1,1v6.78a1,1,0,0,0,1,1h10.92a1,1,0,0,1,1,1V31a1,1,0,0,1-1,1H131.94a1,1,0,0,0-1,1v8.08a1,1,0,0,0,1,1h16.13a1,1,0,0,1,.91,1.4l-.56,1.28a1,1,0,0,1-.91.6H123.66a1,1,0,0,1-1-1V17.66A1,1,0,0,1,123.66,16.66Z"/><path class="cls-1" d="M154,42.53a1,1,0,0,1-.34-1.41l1.48-2.32h.78a18.67,18.67,0,0,0,11.85,3.82c4.84,0,7.46-1.36,7.46-3.9,0-6.72-20.46-3.11-20.42-13.69,0-5.17,5-8.86,14.56-8.86,4.14,0,8.39.75,11.4,2.43a1,1,0,0,1,.41,1.36l-1.27,2.36h-.74c-2.13-1.8-5.7-2.87-9.8-2.87-5.13,0-7,1.27-7,3.16,0,5.62,21.16,2.66,21.16,13.81,0,6.65-7,9.48-15.79,9.48A27,27,0,0,1,154,42.53Z"/><path class="cls-1" d="M187.94,42.53a1,1,0,0,1-.34-1.41l1.48-2.32h.78a18.67,18.67,0,0,0,11.85,3.82c4.84,0,7.46-1.36,7.46-3.9,0-6.72-20.46-3.11-20.42-13.69,0-5.17,5-8.86,14.56-8.86,4.14,0,8.39.75,11.4,2.43a1,1,0,0,1,.4,1.36l-1.27,2.36h-.74c-2.13-1.8-5.69-2.87-9.79-2.87-5.13,0-7,1.27-7,3.16,0,5.62,21.15,2.66,21.15,13.81,0,6.65-7,9.48-15.78,9.48A27,27,0,0,1,187.94,42.53Z"/><path class="cls-1" d="M224.85,16.66h22.61a1,1,0,0,1,.92.6l.56,1.28a1,1,0,0,1-.92,1.4H233.13a1,1,0,0,0-1,1v6.78a1,1,0,0,0,1,1H244a1,1,0,0,1,1,1V31a1,1,0,0,1-1,1H233.13a1,1,0,0,0-1,1v8.08a1,1,0,0,0,1,1h16.12a1,1,0,0,1,.92,1.4l-.56,1.28a1,1,0,0,1-.92.6H224.85a1,1,0,0,1-1-1V17.66A1,1,0,0,1,224.85,16.66Z"/><path class="cls-1" d="M300,18l-11,26.7a1,1,0,0,1-.92.62H284.9a1,1,0,0,1-.92-.61L278.23,31a1,1,0,0,0-1.85,0L270.6,44.75a1,1,0,0,1-.92.61H266.5a1,1,0,0,1-.93-.61l-11.06-26.7a1,1,0,0,1,.93-1.39h6.85a1,1,0,0,1,.92.62l6.62,15.94a1,1,0,0,0,1.85,0l6.64-15.94a1,1,0,0,1,.93-.62h1.41a1,1,0,0,1,.92.62l6.57,15.89a1,1,0,0,0,1.85,0l6.57-15.89a1,1,0,0,1,.92-.62h1.57A1,1,0,0,1,300,18Z"/><path class="cls-1" d="M306.85,16.66h22.61a1,1,0,0,1,.92.6l.56,1.28a1,1,0,0,1-.92,1.4H315.13a1,1,0,0,0-1,1v6.78a1,1,0,0,0,1,1H326a1,1,0,0,1,1,1V31a1,1,0,0,1-1,1H315.13a1,1,0,0,0-1,1v8.08a1,1,0,0,0,1,1h16.12a1,1,0,0,1,.92,1.4l-.56,1.28a1,1,0,0,1-.92.6H306.85a1,1,0,0,1-1-1V17.66A1,1,0,0,1,306.85,16.66Z"/><path class="cls-1" d="M340.14,16.66h6.2a1,1,0,0,1,1,1v26.7a1,1,0,0,1-1,1h-6.2a1,1,0,0,1-1-1V17.66A1,1,0,0,1,340.14,16.66Z"/><path class="cls-1" d="M24.15,0,55,55.49h0a8.52,8.52,0,0,0,7.45-12.66L45.71,12.7A24.64,24.64,0,0,0,24.15,0Z"/><path class="cls-1" d="M0,0,30.81,55.49h0a8.53,8.53,0,0,0,7.46-12.66L21.56,12.7A24.64,24.64,0,0,0,0,0Z"/><circle class="cls-1" cx="6.95" cy="48.91" r="6.95"/><path class="cls-1" d="M82.82.5,65.68,31.41l-.12.2c-.15-.23-.29-.48-.42-.72A20.45,20.45,0,0,1,82.82.5Z"/></g></g></svg>