<svg xmlns="http://www.w3.org/2000/svg" viewBox="0 0 332.62 224.33"><defs><style>.cls-1{fill:#fff;}</style></defs><g id="Layer_2" data-name="Layer 2"><g id="レイヤー_4" data-name="レイヤー 4"><path class="cls-1" d="M97,0,220.72,222.86h0c26.09,0,42.6-28,29.95-50.83L183.59,51A99,99,0,0,0,97,0Z"/><path class="cls-1" d="M0,0,123.74,222.86h0A34.23,34.23,0,0,0,153.68,172L86.61,51A99,99,0,0,0,0,0Z"/><circle class="cls-1" cx="27.92" cy="196.41" r="27.92"/><path class="cls-1" d="M332.62,2,263.76,126.16l-.47.79c-.59-.94-1.14-1.91-1.67-2.88A82.12,82.12,0,0,1,332.62,2Z"/></g></g></svg>