<svg xmlns="http://www.w3.org/2000/svg" viewBox="0 0 570 511.67"><defs><style>.cls-1{fill:#3f3d56;}.cls-2{fill:#e6e6e6;}.cls-3{fill:#b54e4e;}.cls-4{fill:#fff;}</style></defs><g id="Layer_2" data-name="Layer 2"><g id="Layer_1-2" data-name="Layer 1"><path class="cls-1" d="M565,195.67a1.06,1.06,0,0,1-.57-.17L287.87,2.89a5,5,0,0,0-5.73,0L7.57,195.49a1,1,0,1,1-1.14-1.63L281,1.26a7,7,0,0,1,8,0l276.56,192.6a1,1,0,0,1-.57,1.82Z"/><polygon class="cls-2" points="23.26 202.5 285.28 8.32 549.28 216.32 298.78 364.82 162.78 333.82 23.26 202.5"/><path class="cls-3" d="M174.26,456.54H44.82a6,6,0,1,1,0-12.09H174.26a6,6,0,1,1,0,12.09Z"/><path class="cls-3" d="M91.26,430.54H44.82a6,6,0,1,1,0-12.09H91.26a6,6,0,1,1,0,12.09Z"/><path class="cls-4" d="M289,310.66a7.64,7.64,0,0,1-2.87-.56L124.5,243.05V33.17a7,7,0,0,1,7-7h310a7,7,0,0,1,7,7v210l-.3.13L291.92,310.06A7.53,7.53,0,0,1,289,310.66Z"/><path class="cls-1" d="M289,311.16a8,8,0,0,1-3.06-.6L124,243.38V33.17a7.51,7.51,0,0,1,7.5-7.5h310a7.51,7.51,0,0,1,7.5,7.5V243.53l-156.89,67A8.14,8.14,0,0,1,289,311.16ZM126,242.05l160.66,66.66a6.1,6.1,0,0,0,4.67,0L447,242.2v-209a5.51,5.51,0,0,0-5.5-5.5h-310a5.51,5.51,0,0,0-5.5,5.5Z"/><path class="cls-1" d="M563,193.67h-.2l-114.8,49L290.93,309.76a5,5,0,0,1-3.88,0L125,242.55,7.38,193.75l-.18-.08H7a7,7,0,0,0-7,7v304a7,7,0,0,0,7,7H563a7,7,0,0,0,7-7v-304A7,7,0,0,0,563,193.67Zm5,311a5,5,0,0,1-5,5H7a5,5,0,0,1-5-5v-304a5,5,0,0,1,4.81-5l118.19,49,161.28,66.92a7.08,7.08,0,0,0,5.44,0L448,244.86l115.2-49.19a5,5,0,0,1,4.8,5Z"/><path class="cls-3" d="M287.34,251.15a27.49,27.49,0,0,1-16.54-5.5l-.3-.22-62.31-47.71a27.69,27.69,0,1,1,33.68-43.95l40.36,30.95L377.6,60.33a27.7,27.7,0,0,1,38.82-5.12h0l-.6.8.61-.79A27.71,27.71,0,0,1,421.56,94L309.37,240.34A27.7,27.7,0,0,1,287.34,251.15Z"/></g></g></svg>